<svg data-v-423bf9ae="" xmlns="http://www.w3.org/2000/svg" viewBox="0 0 298 112" class="iconLeft"><!----><!----><!----><g data-v-423bf9ae="" id="ebfd6d84-2e79-4b9a-a844-a0e2caa89898" fill="#E6E7E3" transform="matrix(4.285714285714286,0,0,4.285714285714286,123.12808599642345,15.4412704876491)"><path d="M5.61 13.13L5.61 13.13Q4.40 13.13 3.49 12.76Q2.58 12.39 1.99 11.72Q1.39 11.04 1.09 10.09Q0.80 9.14 0.80 7.98L0.80 7.98Q0.80 6.85 1.11 5.91Q1.42 4.96 2.04 4.29Q2.66 3.61 3.58 3.23Q4.49 2.86 5.70 2.86L5.70 2.86Q6.48 2.86 7.06 2.98Q7.64 3.10 8.02 3.31Q8.41 3.52 8.60 3.81Q8.79 4.09 8.79 4.43L8.79 4.43Q8.79 4.66 8.69 4.84Q8.59 5.02 8.41 5.14Q8.24 5.27 8.00 5.34Q7.77 5.41 7.49 5.41L7.49 5.41Q7.49 5.08 7.40 4.76Q7.30 4.44 7.08 4.18Q6.86 3.92 6.51 3.76Q6.15 3.60 5.64 3.60L5.64 3.60Q4.75 3.60 4.13 3.89Q3.50 4.18 3.10 4.74Q2.71 5.30 2.53 6.11Q2.35 6.93 2.35 7.98L2.35 7.98Q2.35 9.03 2.54 9.84Q2.72 10.66 3.14 11.21Q3.55 11.76 4.22 12.05Q4.88 12.34 5.84 12.34L5.84 12.34Q6.24 12.34 6.62 12.30Q7 12.26 7.29 12.17L7.29 12.17L7.29 9.91Q7.29 9.60 7.20 9.42Q7.11 9.23 6.95 9.13Q6.79 9.03 6.59 9.00Q6.38 8.96 6.15 8.96L6.15 8.96L6.09 8.96L6.09 8.37L9.73 8.37L9.73 8.96L9.67 8.96Q9.47 8.96 9.30 9.00Q9.12 9.03 8.99 9.14Q8.86 9.24 8.78 9.44Q8.71 9.65 8.71 9.97L8.71 9.97L8.71 12.49Q8.00 12.82 7.26 12.97Q6.51 13.13 5.61 13.13ZM10.32 12.41L10.50 12.41Q10.73 12.41 10.94 12.38Q11.15 12.35 11.31 12.25Q11.46 12.15 11.56 11.97Q11.65 11.78 11.65 11.47L11.65 11.47L11.65 7.03Q11.65 6.73 11.56 6.54Q11.46 6.35 11.31 6.25Q11.15 6.15 10.94 6.11Q10.73 6.08 10.50 6.08L10.50 6.08L10.46 6.08L10.46 5.49L12.96 5.49L12.96 11.40Q12.96 11.73 13.05 11.93Q13.15 12.13 13.30 12.23Q13.45 12.34 13.67 12.37Q13.88 12.41 14.11 12.41L14.11 12.41L14.29 12.41L14.29 13.00L10.32 13.00L10.32 12.41ZM11.45 3.22L11.45 3.22Q11.45 2.97 11.51 2.81Q11.57 2.65 11.68 2.54Q11.79 2.44 11.94 2.40Q12.08 2.36 12.25 2.36L12.25 2.36Q12.41 2.36 12.56 2.40Q12.70 2.44 12.81 2.54Q12.91 2.65 12.98 2.81Q13.04 2.97 13.04 3.22L13.04 3.22Q13.04 3.47 12.98 3.63Q12.91 3.79 12.81 3.90Q12.70 4.00 12.56 4.04Q12.41 4.09 12.25 4.09L12.25 4.09Q12.08 4.09 11.94 4.04Q11.79 4.00 11.68 3.90Q11.57 3.79 11.51 3.63Q11.45 3.47 11.45 3.22ZM21.83 5.78L21.83 5.78Q21.83 5.93 21.79 6.07Q21.75 6.20 21.66 6.30Q21.57 6.40 21.43 6.46Q21.29 6.51 21.10 6.51L21.10 6.51Q21.10 6.43 21.08 6.35Q21.05 6.27 21.00 6.20Q20.95 6.13 20.86 6.08Q20.77 6.04 20.63 6.04L20.63 6.04Q20.45 6.04 20.31 6.08Q20.17 6.12 20.03 6.21L20.03 6.21Q20.27 6.50 20.42 6.90Q20.58 7.30 20.58 7.90L20.58 7.90Q20.58 8.42 20.42 8.86Q20.26 9.30 19.95 9.63Q19.64 9.95 19.16 10.13Q18.69 10.31 18.05 10.31L18.05 10.31Q17.97 10.31 17.87 10.31Q17.77 10.30 17.66 10.30Q17.56 10.29 17.47 10.28Q17.38 10.27 17.33 10.27L17.33 10.27Q17.19 10.34 17.07 10.42Q16.95 10.50 16.85 10.60Q16.76 10.71 16.71 10.83Q16.65 10.96 16.65 11.12L16.65 11.12Q16.65 11.29 16.72 11.40Q16.78 11.50 16.90 11.56Q17.01 11.61 17.18 11.63Q17.34 11.65 17.52 11.65L17.52 11.65L19.11 11.65Q19.74 11.65 20.17 11.81Q20.61 11.96 20.89 12.24Q21.16 12.52 21.29 12.90Q21.42 13.29 21.42 13.74L21.42 13.74Q21.42 14.34 21.19 14.83Q20.97 15.31 20.51 15.65Q20.06 15.99 19.36 16.17Q18.66 16.36 17.71 16.36L17.71 16.36Q16.24 16.36 15.52 15.82Q14.79 15.28 14.79 14.31L14.79 14.31Q14.79 13.90 14.94 13.60Q15.08 13.29 15.32 13.07Q15.57 12.85 15.88 12.71Q16.19 12.58 16.54 12.52L16.54 12.52Q16.40 12.46 16.26 12.35Q16.13 12.25 16.02 12.11Q15.91 11.96 15.84 11.78Q15.77 11.59 15.77 11.37L15.77 11.37Q15.77 10.95 15.99 10.65Q16.21 10.34 16.69 10.06L16.69 10.06Q16.39 9.93 16.15 9.72Q15.91 9.50 15.75 9.23Q15.59 8.95 15.51 8.62Q15.42 8.29 15.42 7.94L15.42 7.94Q15.42 7.33 15.59 6.86Q15.75 6.38 16.08 6.04Q16.41 5.71 16.90 5.53Q17.39 5.35 18.05 5.35L18.05 5.35Q18.31 5.35 18.55 5.39Q18.80 5.43 19.01 5.49Q19.22 5.56 19.38 5.64Q19.55 5.72 19.65 5.81L19.65 5.81Q19.76 5.70 19.89 5.57Q20.03 5.43 20.20 5.32Q20.37 5.21 20.57 5.13Q20.77 5.06 21.01 5.06L21.01 5.06Q21.22 5.06 21.37 5.12Q21.53 5.17 21.63 5.27Q21.73 5.37 21.78 5.51Q21.83 5.64 21.83 5.78ZM15.93 14.23L15.93 14.23Q15.93 14.53 16.01 14.80Q16.09 15.07 16.30 15.26Q16.50 15.45 16.85 15.56Q17.20 15.67 17.73 15.67L17.73 15.67Q18.48 15.67 18.97 15.54Q19.46 15.42 19.75 15.19Q20.04 14.96 20.15 14.65Q20.27 14.34 20.27 13.97L20.27 13.97Q20.27 13.65 20.18 13.44Q20.08 13.23 19.90 13.11Q19.72 13.00 19.46 12.95Q19.19 12.90 18.84 12.90L18.84 12.90L17.47 12.90Q17.17 12.90 16.90 12.95Q16.62 13.00 16.40 13.15Q16.19 13.29 16.06 13.55Q15.93 13.81 15.93 14.23ZM16.74 7.90L16.74 7.90Q16.74 8.80 17.04 9.21Q17.34 9.63 18.01 9.63L18.01 9.63Q18.35 9.63 18.59 9.53Q18.83 9.43 18.98 9.21Q19.13 9.00 19.19 8.67Q19.26 8.34 19.26 7.88L19.26 7.88Q19.26 6.94 18.97 6.49Q18.68 6.04 18.00 6.04L18.00 6.04Q17.32 6.04 17.03 6.50Q16.74 6.96 16.74 7.90ZM29.37 5.78L29.37 5.78Q29.37 5.93 29.32 6.07Q29.28 6.20 29.19 6.30Q29.10 6.40 28.96 6.46Q28.82 6.51 28.63 6.51L28.63 6.51Q28.63 6.43 28.61 6.35Q28.59 6.27 28.54 6.20Q28.49 6.13 28.40 6.08Q28.31 6.04 28.16 6.04L28.16 6.04Q27.99 6.04 27.84 6.08Q27.70 6.12 27.56 6.21L27.56 6.21Q27.80 6.50 27.96 6.90Q28.11 7.30 28.11 7.90L28.11 7.90Q28.11 8.42 27.95 8.86Q27.79 9.30 27.48 9.63Q27.17 9.95 26.70 10.13Q26.22 10.31 25.59 10.31L25.59 10.31Q25.50 10.31 25.40 10.31Q25.30 10.30 25.20 10.30Q25.09 10.29 25.01 10.28Q24.92 10.27 24.86 10.27L24.86 10.27Q24.73 10.34 24.60 10.42Q24.48 10.50 24.39 10.60Q24.29 10.71 24.24 10.83Q24.19 10.96 24.19 11.12L24.19 11.12Q24.19 11.29 24.25 11.40Q24.32 11.50 24.43 11.56Q24.55 11.61 24.71 11.63Q24.87 11.65 25.05 11.65L25.05 11.65L26.64 11.65Q27.27 11.65 27.71 11.81Q28.14 11.96 28.42 12.24Q28.70 12.52 28.82 12.90Q28.95 13.29 28.95 13.74L28.95 13.74Q28.95 14.34 28.73 14.83Q28.51 15.31 28.05 15.65Q27.59 15.99 26.89 16.17Q26.19 16.36 25.24 16.36L25.24 16.36Q23.78 16.36 23.05 15.82Q22.33 15.28 22.33 14.31L22.33 14.31Q22.33 13.90 22.47 13.60Q22.61 13.29 22.86 13.07Q23.10 12.85 23.41 12.71Q23.73 12.58 24.08 12.52L24.08 12.52Q23.93 12.46 23.80 12.35Q23.66 12.25 23.55 12.11Q23.44 11.96 23.37 11.78Q23.30 11.59 23.30 11.37L23.30 11.37Q23.30 10.95 23.52 10.65Q23.74 10.34 24.22 10.06L24.22 10.06Q23.92 9.93 23.68 9.72Q23.45 9.50 23.29 9.23Q23.13 8.95 23.04 8.62Q22.96 8.29 22.96 7.94L22.96 7.94Q22.96 7.33 23.12 6.86Q23.28 6.38 23.61 6.04Q23.94 5.71 24.43 5.53Q24.92 5.35 25.59 5.35L25.59 5.35Q25.84 5.35 26.09 5.39Q26.33 5.43 26.54 5.49Q26.75 5.56 26.92 5.64Q27.08 5.72 27.19 5.81L27.19 5.81Q27.29 5.70 27.43 5.57Q27.56 5.43 27.73 5.32Q27.90 5.21 28.11 5.13Q28.31 5.06 28.54 5.06L28.54 5.06Q28.75 5.06 28.91 5.12Q29.06 5.17 29.16 5.27Q29.26 5.37 29.32 5.51Q29.37 5.64 29.37 5.78ZM23.46 14.23L23.46 14.23Q23.46 14.53 23.54 14.80Q23.63 15.07 23.83 15.26Q24.04 15.45 24.38 15.56Q24.73 15.67 25.27 15.67L25.27 15.67Q26.02 15.67 26.51 15.54Q27.00 15.42 27.28 15.19Q27.57 14.96 27.69 14.65Q27.80 14.34 27.80 13.97L27.80 13.97Q27.80 13.65 27.71 13.44Q27.62 13.23 27.44 13.11Q27.25 13.00 26.99 12.95Q26.72 12.90 26.37 12.90L26.37 12.90L25.00 12.90Q24.71 12.90 24.43 12.95Q24.15 13.00 23.94 13.15Q23.72 13.29 23.59 13.55Q23.46 13.81 23.46 14.23ZM24.27 7.90L24.27 7.90Q24.27 8.80 24.57 9.21Q24.87 9.63 25.55 9.63L25.55 9.63Q25.89 9.63 26.12 9.53Q26.36 9.43 26.51 9.21Q26.66 9.00 26.73 8.67Q26.79 8.34 26.79 7.88L26.79 7.88Q26.79 6.94 26.50 6.49Q26.22 6.04 25.53 6.04L25.53 6.04Q24.86 6.04 24.56 6.50Q24.27 6.96 24.27 7.90ZM29.72 12.41L29.90 12.41Q30.14 12.41 30.35 12.37Q30.56 12.34 30.71 12.23Q30.86 12.13 30.96 11.93Q31.05 11.73 31.05 11.40L31.05 11.40L31.05 3.90Q31.05 3.59 30.96 3.40Q30.86 3.21 30.71 3.11Q30.55 3.01 30.34 2.98Q30.13 2.95 29.90 2.95L29.90 2.95L29.72 2.95L29.72 2.36L32.37 2.36L32.37 11.40Q32.37 11.73 32.46 11.93Q32.55 12.13 32.70 12.23Q32.86 12.34 33.07 12.37Q33.28 12.41 33.52 12.41L33.52 12.41L33.69 12.41L33.69 13.00L29.72 13.00L29.72 12.41ZM37.73 6.10L37.73 6.10Q36.95 6.10 36.53 6.74Q36.11 7.37 36.03 8.59L36.03 8.59L39.25 8.59Q39.25 8.03 39.17 7.57Q39.09 7.12 38.91 6.79Q38.73 6.46 38.44 6.28Q38.15 6.10 37.73 6.10ZM37.90 13.13L37.90 13.13Q37.14 13.13 36.53 12.88Q35.93 12.62 35.51 12.13Q35.10 11.63 34.87 10.92Q34.65 10.21 34.65 9.30L34.65 9.30Q34.65 7.33 35.46 6.34Q36.26 5.35 37.75 5.35L37.75 5.35Q38.43 5.35 38.97 5.56Q39.51 5.78 39.89 6.20Q40.26 6.62 40.47 7.24Q40.67 7.87 40.67 8.70L40.67 8.70L40.67 9.34L36.00 9.34Q36.02 10.10 36.16 10.65Q36.30 11.20 36.56 11.56Q36.83 11.92 37.21 12.08Q37.59 12.25 38.09 12.25L38.09 12.25Q38.45 12.25 38.76 12.17Q39.07 12.09 39.33 11.95Q39.58 11.81 39.77 11.64Q39.97 11.46 40.09 11.27L40.09 11.27Q40.19 11.31 40.27 11.44Q40.36 11.57 40.36 11.75L40.36 11.75Q40.36 11.96 40.21 12.21Q40.06 12.45 39.75 12.65Q39.44 12.86 38.98 13.00Q38.52 13.13 37.90 13.13Z"></path></g><!----><g data-v-423bf9ae="" id="ff9d47c0-83c8-43fa-86b5-7e82ff9bd273" transform="matrix(1.1111111111111112,0,0,1.1111111111111112,0.7216746012369768,0.44444444444444287)" stroke="none" fill="#E6E7E3"><switch><g><path d="M87.919 8.411h-1.158V2.696L86.069 0l-.698 2.696v5.715h-1.152v23.646h3.7V8.411zm1.941 79.443c-2.238-2.401-2.779-6.118-2.822-8.563h.903a.336.336 0 00.338-.338l1.184-26.432h.171a.64.64 0 00.644-.642l.886-14.059h.098c.517 0 .938-.352.938-.786v-2.019c0-.436-.421-.786-.938-.786h-.055v-.679a.783.783 0 00-.783-.785h-8.71a.784.784 0 00-.785.785v.679h-.055c-.517 0-.935.35-.935.786v2.019c0 .434.418.786.935.786h.098l.887 14.059c0 .356.288.642.644.642h.172l1.182 26.432c0 .187.151.338.338.338h1.03c.057 2.646.558 6.779 3.302 9.792 3.102 3.32 5.581 4.133 5.56 7.945.004.729-.088 1.588-.298 2.607l1.773.365c.227-1.115.339-2.093.339-2.972-.024-4.918-3.438-6.283-6.041-9.174zM21.717 19.994h-7.228s.839 7.019.839 14.467c0 7.446-1.259 8.814-1.259 17.031v25.932c0 2.399 2.437 1.801 4.034 1.801 1.599 0 4.036.599 4.036-1.801V51.492c0-8.216-1.261-9.584-1.261-17.031 0-7.448.839-14.467.839-14.467zM31.291 16.641c1.133-.035 1.98-.866 1.985-1.952V9.317c-.042-1.134-.871-1.977-1.954-1.987l-1.134-.057c-.834-.055-1.777.577-1.835 1.51-.447.44-1.238.828-2.127.821-1.969-.117-3.133-2.59-4.41-2.603-.591-.004-2.956-.025-5.22-.042C14.131 6.938 6.794 6.33 0 17.606L1.174 18.7s4.47-4.495 10.824-4.487c0 0 2.462.12 2.443 2.383.045.642.044.937.044.937l-.012 1.185 7.244.01s-.035-1.626.015-2.068c-.039-1.234 1.553-2.694 3.962-2.627 1.628-.035 2.658.714 2.502 1.45.091.595 1.024 1.142 1.863 1.102l1.232.056zM40.167 31.392l-.002 5.206-3.185 1.835-3.18-1.842.002-5.195c-2.275 1.164-3.849 3.505-3.849 6.237 0 2.721 1.562 5.051 3.821 6.222l-.035 32.225a3.204 3.204 0 106.407.008l.036-32.224c2.27-1.167 3.838-3.504 3.838-6.232 0-2.732-1.575-5.076-3.853-6.24z"></path><circle cx="36.985" cy="76.362" r="1.262"></circle><path d="M70.51 52.245c-.395-1.34-.278-2.519.19-3.695.555-1.382.347-1.522 0-1.245-.151.122-1.386 1.058-2.709 2.062a44.001 44.001 0 00-1.208-1.864 7.28 7.28 0 01-3.221 1.554c.432.608.979 1.431 1.594 2.452-.388.293-.631.479-.631.479 2.67 4.465 6.517 12.703 6.493 23.018 0 .537-.011 1.079-.031 1.631a2.553 2.553 0 005.102.203c.027-.623.038-1.233.038-1.834-.018-9.64-2.915-17.506-5.617-22.761zm-9.454-10.629a1.052 1.052 0 102.101 0 1.051 1.051 0 00-2.101 0zm-3.711 5.813a45.424 45.424 0 00-1.261 1.938 380.645 380.645 0 01-2.705-2.062c-.349-.277-.556-.137 0 1.245.468 1.176.583 2.355.188 3.695-2.701 5.255-5.598 13.121-5.617 22.761 0 .601.012 1.211.037 1.834a2.552 2.552 0 002.653 2.447 2.554 2.554 0 002.452-2.65 40.896 40.896 0 01-.033-1.631c-.021-10.314 3.825-18.553 6.494-23.018l-.63-.479a39.996 39.996 0 011.614-2.48 7.25 7.25 0 01-3.192-1.6zm11.132-5.813a6.346 6.346 0 00-1.798-4.427c.18-1.217.533-3.853.587-6.309.067-3.321-2.841-7.683-4.226-8.169h-.673v8.586a.392.392 0 01-.229.359s-.243.109-.516.242c-.022.01-.045.02-.065.032a28.154 28.154 0 011.391.838.396.396 0 01.181.391.397.397 0 01-.29.318l-1.04.278 1.383.65a.39.39 0 01-.007.714l-1.559.694 2.005.65a.395.395 0 01-.244.75l-2.978-.971a.393.393 0 01-.269-.352l-.001-.021c0-.155.091-.297.233-.361l1.706-.758-1.573-.741a.392.392 0 01.065-.737l1.196-.32c-.011-.004-.021-.011-.033-.019-.403-.249-.909-.52-1.027-.551a.447.447 0 01-.149-.035c-.08-.021-.25-.177-.243-.372.021-.222.099-.254.127-.299a.492.492 0 01.092-.076c.055-.039.113-.074.179-.113a12.603 12.603 0 01.881-.44V22.71h-.413c-1.382.486-4.293 4.848-4.222 8.169.05 2.456.402 5.092.583 6.309a6.37 6.37 0 1010.946 4.428zm-3.986 1.379l-2.386 1.379-2.387-1.379v-2.758l2.387-1.377 2.386 1.377v2.758z"></path></g></switch></g><!----></svg>