<?xml version="1.0" encoding="utf-8"?>
<!-- Uploaded to: SVG Repo, www.svgrepo.com, Generator: SVG Repo Mixer Tools -->
<svg height="100%" width="100%" viewBox="0 0 1024 1024" class="icon"  version="1.1" xmlns="http://www.w3.org/2000/svg"><path d="M83.262578 218.271289v553.335467a45.761422 45.761422 0 0 0 45.7728 45.7728h752.275911a45.7728 45.7728 0 0 0 45.761422-45.7728V218.271289a45.761422 45.761422 0 0 0-45.761422-45.7728H129.035378a45.761422 45.761422 0 0 0-45.7728 45.7728z" fill="#E6E6E6" /><path d="M621.181156 494.921956m-252.029156 0a252.029156 252.029156 0 1 0 504.058311 0 252.029156 252.029156 0 1 0-504.058311 0Z" fill="#4D4D4D" /><path d="M419.032178 492.111644c0 58.993778 60.689067 98.486044 114.631111 74.569956l53.088711-23.506489a59.175822 59.175822 0 0 1-24.7808-51.063467H419.032178zM618.382222 554.109156v142.9504c58.971022 0 98.463289-60.711822 74.569956-114.642489l-23.517867-53.111467a59.164444 59.164444 0 0 1-51.052089 24.803556zM655.553422 446.680178a59.153067 59.153067 0 0 1 24.792178 51.052089H823.307378c0-58.993778-60.689067-98.486044-114.619734-74.592711l-53.122844 23.517866-0.011378 0.022756zM623.980089 435.734756V292.772978c-58.9824 0-98.474667 60.689067-74.581333 114.631111l23.506488 53.111467a59.141689 59.141689 0 0 1 51.074845-24.7808z" fill="#247396" /><path d="M623.980089 435.734756a59.107556 59.107556 0 0 0-51.063467 24.7808 58.823111 58.823111 0 0 0-11.013689 34.417777c0 19.899733 9.807644 37.501156 24.860445 48.241778h0.022755a58.629689 58.629689 0 0 0 34.372267 11.013689c19.911111 0 37.535289-9.807644 48.264533-24.8832a58.993778 58.993778 0 0 0 11.002311-34.372267 59.073422 59.073422 0 0 0-24.871822-48.253155 58.766222 58.766222 0 0 0-31.573333-10.945422z" fill="#247396" /><path d="M466.011022 712.305778a265.238756 265.238756 0 0 0 155.147378 49.675378c147.239822 0 267.047822-119.796622 267.047822-267.047823S768.398222 227.885511 621.1584 227.885511 354.121956 347.682133 354.121956 494.933333a266.581333 266.581333 0 0 0 67.845688 177.857423 14.984533 14.984533 0 1 0 22.357334-19.990756A236.657778 236.657778 0 0 1 384.113778 494.933333c0-130.707911 106.336711-237.044622 237.033244-237.044622 130.707911 0 237.044622 106.336711 237.044622 237.044622s-106.336711 237.044622-237.044622 237.044623c-49.755022 0-97.371022-15.246222-137.705244-44.077512a15.007289 15.007289 0 0 0-17.430756 24.405334z" fill="" /><path d="M83.262578 651.389156c8.283022 0 14.995911-6.724267 14.995911-14.995912V218.259911a30.799644 30.799644 0 0 1 30.776889-30.776889h651.696355a14.984533 14.984533 0 1 0 0-29.991822H129.035378A60.8256 60.8256 0 0 0 68.266667 218.259911v418.133333c0 8.271644 6.712889 14.995911 14.995911 14.995912z" fill="" /><path d="M881.311289 157.479822h-48.583111a14.984533 14.984533 0 1 0 0 29.991822h48.583111a30.8224 30.8224 0 0 1 30.776889 30.776889v553.358223a30.8224 30.8224 0 0 1-30.776889 30.776888H129.035378a30.811022 30.811022 0 0 1-30.776889-30.776888v-85.230934a14.995911 14.995911 0 1 0-29.991822 0v85.230934a60.836978 60.836978 0 0 0 60.768711 60.768711h752.275911a60.836978 60.836978 0 0 0 60.768711-60.768711V218.259911A60.836978 60.836978 0 0 0 881.311289 157.479822z" fill="" /><path d="M419.032178 477.115733c-8.283022 0-14.995911 6.712889-14.995911 14.995911a96.267378 96.267378 0 0 0 43.906844 80.952889 96.312889 96.312889 0 0 0 91.784533 7.338667l45.886578-20.320711a72.317156 72.317156 0 0 0 17.760711 6.917689v130.070755c0 8.2944 6.712889 14.995911 14.995911 14.995911a96.199111 96.199111 0 0 0 80.918756-43.906844 96.221867 96.221867 0 0 0 7.350044-91.795911l-20.320711-45.909333c3.072-5.586489 5.381689-11.537067 6.883556-17.7152H823.296c8.2944 0 14.995911-6.712889 14.995911-14.995912 0-32.802133-16.418133-63.067022-43.906844-80.952888s-61.815467-20.639289-91.784534-7.350045l-45.920711 20.332089a73.022578 73.022578 0 0 0-17.7152-6.894933V292.772978c0-8.283022-6.724267-14.995911-14.995911-14.995911a96.221867 96.221867 0 0 0-80.930133 43.906844 96.256 96.256 0 0 0-7.350045 91.795911l20.309334 45.886578a72.988444 72.988444 0 0 0-6.894934 17.749333H419.032178z m108.544 75.867023a66.298311 66.298311 0 0 1-63.271822-5.051734 66.332444 66.332444 0 0 1-28.580978-40.812089h112.207644c1.888711 11.264 6.360178 21.902222 12.959289 31.106845l-33.314133 14.756978z m146.579911 98.816a66.321067 66.321067 0 0 1-40.789333 28.580977v-112.2304a74.535822 74.535822 0 0 0 31.106844-12.970666l14.7456 33.325511a66.309689 66.309689 0 0 1-5.063111 63.294578z m40.595911-214.9376a66.3552 66.3552 0 0 1 63.2832 5.063111 66.366578 66.366578 0 0 1 28.580978 40.812089H694.385778a74.399289 74.399289 0 0 0-12.970667-31.118223l33.336889-14.756977zM665.417956 494.933333c0 0.6144 0 1.2288-0.045512 1.831823l-0.022755 0.273066a43.736178 43.736178 0 0 1-8.135111 23.552 44.407467 44.407467 0 0 1-37.876622 18.5344h-0.295823a43.531378 43.531378 0 0 1-23.529244-8.157866c-0.147911-0.1024-0.284444-0.216178-0.443733-0.3072a44.350578 44.350578 0 0 1-18.1248-37.603556l0.011377-0.261689a43.736178 43.736178 0 0 1 8.180623-23.574755 44.361956 44.361956 0 0 1 37.865244-18.523023l0.284444 0.011378a44.3392 44.3392 0 0 1 42.131912 44.225422z m-97.234489-156.899555a66.332444 66.332444 0 0 1 40.789333-28.5696v112.2304a74.535822 74.535822 0 0 0-31.095467 12.947911l-14.756977-33.314133a66.377956 66.377956 0 0 1 5.063111-63.294578zM306.460444 256.466489H150.482489a14.995911 14.995911 0 1 0 0 29.991822h155.977955a14.995911 14.995911 0 1 0 0-29.991822zM306.460444 479.937422H150.482489a14.995911 14.995911 0 1 0 0 29.991822h155.977955a14.995911 14.995911 0 1 0 0-29.991822zM306.460444 628.906667H150.482489a14.995911 14.995911 0 1 0 0 29.991822h155.977955a14.995911 14.995911 0 1 0 0-29.991822zM306.460444 554.427733H150.482489a15.007289 15.007289 0 0 0 0 29.991823h155.977955a14.995911 14.995911 0 1 0 0-29.991823zM306.460444 703.396978H150.482489a14.995911 14.995911 0 1 0 0 29.991822h155.977955a14.995911 14.995911 0 1 0 0-29.991822zM306.460444 405.447111H289.450667a14.995911 14.995911 0 1 0 0 29.991822h16.9984a14.995911 14.995911 0 0 0 0.011377-29.991822zM150.482489 435.438933h88.9856a14.995911 14.995911 0 1 0 0-29.991822H150.482489a14.995911 14.995911 0 1 0 0 29.991822zM306.460444 330.9568H150.482489a14.995911 14.995911 0 1 0 0 29.991822h155.977955a14.995911 14.995911 0 1 0 0-29.991822z" fill="" /></svg>