<?xml version="1.0" encoding="utf-8"?><!-- Uploaded to: SVG Repo, www.svgrepo.com, Generator: SVG Repo Mixer Tools -->
<svg height="100%" width="100%" viewBox="0 0 36 36" xmlns="http://www.w3.org/2000/svg" xmlns:xlink="http://www.w3.org/1999/xlink" aria-hidden="true" role="img" class="iconify iconify--twemoji" preserveAspectRatio="xMidYMid meet"><path fill="#D79E84" d="M35 36H1c-.55 0-1-.45-1-1V1c0-.55.45-1 1-1h34c.55 0 1 .45 1 1v34c0 .55-.45 1-1 1z"></path><path fill="#BF6952" d="M1 36h34c.55 0 1-.45 1-1V1a.993.993 0 0 0-.294-.706L.294 35.706A.993.993 0 0 0 1 36z"></path><path fill="#8CCAF7" d="M2 2h32v32H2z"></path><path opacity=".5" fill="#FFF" d="M2 34V2h32z"></path><path fill="#BF6952" d="M17 2h2v32h-2z"></path><path fill="#BF6952" d="M2 19v-2h32v2z"></path></svg>