<?xml version="1.0" ?>

<!DOCTYPE svg  PUBLIC '-//W3C//DTD SVG 1.1//EN'  'http://www.w3.org/Graphics/SVG/1.1/DTD/svg11.dtd'>

<!-- Uploaded to: SVG Repo, www.svgrepo.com, Generator: SVG Repo Mixer Tools -->
<svg width="100%" height="100%" viewBox="0 0 6.82666 6.82666" style="shape-rendering:geometricPrecision; text-rendering:geometricPrecision; image-rendering:optimizeQuality; fill-rule:evenodd; clip-rule:evenodd" xml:space="preserve" xmlns="http://www.w3.org/2000/svg" xmlns:xlink="http://www.w3.org/1999/xlink">

<defs>

<style type="text/css">
   <![CDATA[
    .str0 {stroke:#373435;stroke-width:0.00694488;stroke-linecap:round;stroke-linejoin:round}
    .fil4 {fill:none}
    .fil1 {fill:#E57373}
    .fil2 {fill:#EDEAE3}
    .fil3 {fill:#FF3D00}
    .fil0 {fill:black;fill-rule:nonzero}
   ]]>
  </style>

</defs>

<g id="Layer_x0020_1">

<path class="fil0" d="M4.33318 3.42234c-0.0294528,0 -0.0533346,0.0238819 -0.0533346,0.0533346 0,0.0294528 0.0238819,0.0533346 0.0533346,0.0533346l1.53349 0 0 2.22457 -4.90667 0 0 -2.22457 1.53151 0c0.0294528,0 0.0533346,-0.0238819 0.0533346,-0.0533346 0,-0.0294528 -0.0238819,-0.0533346 -0.0533346,-0.0533346l-1.58484 0c-0.0294528,0 -0.0533346,0.0238819 -0.0533346,0.0533346l0 2.33124c0,0.0294528 0.0238819,0.0533346 0.0533346,0.0533346l5.01334 0c0.0294528,0 0.0533346,-0.0238819 0.0533346,-0.0533346l0 -2.33124c0,-0.0294528 -0.0238819,-0.0533346 -0.0533346,-0.0533346l-1.58682 0z"/>

<path class="fil0" d="M2.44299 5.80692c0,0.0294528 0.0238819,0.0533346 0.0533346,0.0533346 0.0294528,0 0.0533346,-0.0238819 0.0533346,-0.0533346l0 -2.73045c0,-0.0294528 -0.0238819,-0.0533346 -0.0533346,-0.0533346 -0.00160236,0 -0.0031811,7.48031e-005 -0.00474803,0.000212598l-0.231776 0.00026378 1.15353 -1.15353 1.15353 1.15353 -0.236469 -0.00026378 0 -0.000204724c-0.0294528,-3.14961e-005 -0.0533583,0.0238189 -0.0533898,0.0532717l0 5.90551e-005 -3.93701e-006 0 0 2.73044c0,0.0294528 0.0238819,0.0533346 0.0533346,0.0533346 0.0294528,0 0.0533346,-0.0238819 0.0533346,-0.0533346l0 -2.67726 0.30713 0.000346457c0.015189,0.00135039 0.0308425,-0.0037874 0.0424646,-0.0154094 0.0208268,-0.0208268 0.0208268,-0.0545984 0,-0.0754252l-3.93701e-006 3.93701e-006 -1.2819 -1.2819 -0.000318898 -0.000326772c-0.0208268,-0.0208268 -0.0545984,-0.0208268 -0.0754252,0l3.93701e-006 3.93701e-006 -1.28208 1.28208c-0.00974803,0.00967717 -0.0157756,0.0230866 -0.0157598,0.0379055 3.14961e-005,0.0294528 0.023937,0.0533031 0.0533898,0.0532717l0 -0.000204724 0.311819 -0.000354331 0 2.67726z"/>

<path class="fil0" d="M5.12517 3.99999c0.130634,0 0.249358,0.0534055 0.33539,0.139441 0.0860354,0.0860354 0.139441,0.20476 0.139441,0.33539l0 0.913138c0,0.0294528 -0.0238819,0.0533346 -0.0533346,0.0533346l-0.842992 0c-0.0294528,0 -0.0533346,-0.0238819 -0.0533346,-0.0533346l0 -0.913138c0,-0.13063 0.0534055,-0.249354 0.139441,-0.33539 0.0860354,-0.0860354 0.20476,-0.139441 0.33539,-0.139441zm0.259972 0.214858c-0.066748,-0.066752 -0.158783,-0.108189 -0.259972,-0.108189 -0.101185,0 -0.19322,0.041437 -0.259972,0.108189 -0.066752,0.066752 -0.108189,0.158787 -0.108189,0.259972l0 0.859803 0.736323 0 0 -0.859803c0,-0.101185 -0.041437,-0.19322 -0.108189,-0.259972z"/>

<path class="fil0" d="M3.41333 2.51567c0.112272,0 0.213921,0.0455118 0.287504,0.119094 0.0735827,0.0735827 0.119094,0.175232 0.119094,0.287504 0,0.112272 -0.0455118,0.213921 -0.119094,0.287504 -0.0735827,0.0735827 -0.175232,0.119094 -0.287504,0.119094 -0.112272,0 -0.213921,-0.0455118 -0.287504,-0.119094 -0.0735827,-0.0735827 -0.119094,-0.175232 -0.119094,-0.287504 0,-0.112272 0.0455118,-0.213921 0.119094,-0.287504 0.0735827,-0.0735827 0.175232,-0.119094 0.287504,-0.119094zm0.212087 0.194512c-0.0542717,-0.0542717 -0.12926,-0.0878425 -0.212087,-0.0878425 -0.0828268,0 -0.157815,0.0335709 -0.212087,0.0878425 -0.0542717,0.0542717 -0.0878425,0.12926 -0.0878425,0.212087 0,0.0828268 0.0335709,0.157815 0.0878425,0.212087 0.0542717,0.0542717 0.12926,0.0878425 0.212087,0.0878425 0.0828268,0 0.157815,-0.0335709 0.212087,-0.0878425 0.0542717,-0.0542717 0.0878425,-0.12926 0.0878425,-0.212087 0,-0.0828268 -0.0335709,-0.157815 -0.0878425,-0.212087z"/>

<path class="fil0" d="M3.46667 1.01974c0,-0.0294528 -0.0238819,-0.0533346 -0.0533346,-0.0533346 -0.0294528,0 -0.0533346,0.0238819 -0.0533346,0.0533346l0 0.773886c0,0.0294528 0.0238819,0.0533346 0.0533346,0.0533346 0.0294528,0 0.0533346,-0.0238819 0.0533346,-0.0533346l0 -0.773886z"/>

<path class="fil0" d="M3.4331 0.970366c-0.0272677,-0.0109291 -0.0582362,0.00231496 -0.0691654,0.0295827 -0.0109291,0.0272677 0.00231496,0.0582362 0.0295827,0.0691654l0.409902 0.163961 -0.409902 0.163961c-0.0272677,0.0109291 -0.0405118,0.0418976 -0.0295827,0.0691654 0.0109291,0.0272677 0.0418976,0.0405118 0.0691654,0.0295827l0.529685 -0.211874c0.0146693,-0.00466929 0.0272165,-0.0156181 0.033378,-0.0310276 0.010937,-0.0273465 -0.00236614,-0.0583898 -0.0297126,-0.0693268l-5.11811e-005 0.000129921 -0.533299 -0.213319z"/>

<path class="fil0" d="M2.80037 5.80692c0,0.0294528 0.0238819,0.0533346 0.0533346,0.0533346 0.0294528,0 0.0533346,-0.0238819 0.0533346,-0.0533346l0 -1.19397c0,-0.139173 0.0569724,-0.265736 0.14876,-0.357524 0.0917874,-0.0917874 0.218354,-0.148764 0.357528,-0.148764l3.93701e-006 0c0.139173,0 0.26574,0.0569764 0.357528,0.148764 0.0917874,0.0917874 0.14876,0.21835 0.14876,0.357524l0 1.19397c0,0.0294528 0.0238819,0.0533346 0.0533346,0.0533346 0.0294528,0 0.0533346,-0.0238819 0.0533346,-0.0533346l0 -1.19397c0,-0.168618 -0.0689449,-0.321874 -0.180012,-0.432941 -0.111071,-0.111071 -0.264327,-0.180016 -0.432945,-0.180016l-3.93701e-006 0c-0.168618,0 -0.321874,0.0689449 -0.432945,0.180016 -0.111067,0.111067 -0.180012,0.264323 -0.180012,0.432941l0 1.19397z"/>

<path class="fil0" d="M1.70149 3.99999c0.13063,0 0.249354,0.0534055 0.33539,0.139441 0.0860354,0.0860354 0.139441,0.20476 0.139441,0.33539l0 0.913138c0,0.0294528 -0.0238819,0.0533346 -0.0533346,0.0533346l-0.842992 0c-0.0294528,0 -0.0533346,-0.0238819 -0.0533346,-0.0533346l0 -0.913138c0,-0.13063 0.0534055,-0.249354 0.139441,-0.33539 0.0860315,-0.0860354 0.204756,-0.139441 0.33539,-0.139441zm0.259972 0.214858c-0.066752,-0.066752 -0.158787,-0.108189 -0.259972,-0.108189 -0.101189,0 -0.193224,0.041437 -0.259972,0.108189 -0.066752,0.066752 -0.108189,0.158787 -0.108189,0.259972l0 0.859803 0.736323 0 0 -0.859803c0,-0.101185 -0.041437,-0.19322 -0.108189,-0.259972z"/>

<path class="fil1 str0" d="M2.54966 3.07647l0 2.67711 0.250717 0 0 -1.14063c0,-0.168618 0.0689449,-0.321874 0.180012,-0.432941 0.111071,-0.111071 0.264327,-0.180016 0.432949,-0.180016 0.168618,0 0.321874,0.0689449 0.432945,0.180016 0.111067,0.111067 0.180012,0.264323 0.180012,0.432941l0 1.14063 0.250709 0 3.93701e-006 -2.67711 0 -5.90551e-005c3.14961e-005,-0.0294528 0.023937,-0.0533031 0.0533898,-0.0532717l0 0.000204724 0.236469 0.00026378 -1.15353 -1.15353 -1.15353 1.15353 0.231776 -0.00026378c0.00156693,-0.000137795 0.00314567,-0.000212598 0.00474803,-0.000212598 0.0294528,0 0.0533346,0.0238819 0.0533346,0.0533346zm1.15118 0.133307c-0.0735827,0.0735827 -0.175232,0.119094 -0.287504,0.119094 -0.112272,0 -0.213921,-0.0455118 -0.287504,-0.119094 -0.0735827,-0.0735827 -0.119094,-0.175232 -0.119094,-0.287504 0,-0.112272 0.0455118,-0.213921 0.119094,-0.287504 0.0735827,-0.0735827 0.175232,-0.119094 0.287504,-0.119094 0.112272,0 0.213921,0.0455118 0.287504,0.119094 0.0735827,0.0735827 0.119094,0.175232 0.119094,0.287504 0,0.112272 -0.0455118,0.213921 -0.119094,0.287504z"/>

<path class="fil1 str0" d="M5.12517 3.99999c0.130634,0 0.249358,0.0534055 0.33539,0.139441 0.0860354,0.0860354 0.139441,0.20476 0.139441,0.33539l0 0.913138c0,0.0294528 -0.0238819,0.0533346 -0.0533346,0.0533346l-0.842992 0c-0.0294528,0 -0.0533346,-0.0238819 -0.0533346,-0.0533346l0 -0.913138c0,-0.13063 0.0534055,-0.249354 0.139441,-0.33539 0.0860354,-0.0860354 0.20476,-0.139441 0.33539,-0.139441zm-0.7415 -0.47098l0 2.22457 1.483 0 0 -2.22457 -1.483 0z"/>

<path class="fil1 str0" d="M2.44299 5.75358l0 -2.22457 -1.48299 0 0 2.22457 1.48299 0zm-0.741496 -1.75359c0.13063,0 0.249354,0.0534055 0.33539,0.139441 0.0860354,0.0860354 0.139441,0.20476 0.139441,0.33539l0 0.913138c0,0.0294528 -0.0238819,0.0533346 -0.0533346,0.0533346l-0.842992 0c-0.0294528,0 -0.0533346,-0.0238819 -0.0533346,-0.0533346l0 -0.913138c0,-0.13063 0.0534055,-0.249354 0.139441,-0.33539 0.0860315,-0.0860354 0.204756,-0.139441 0.33539,-0.139441z"/>

<path class="fil2 str0" d="M3.20124 3.13436c0.0542717,0.0542717 0.12926,0.0878425 0.212087,0.0878425 0.0828268,0 0.157815,-0.0335709 0.212087,-0.0878425 0.0542717,-0.0542717 0.0878425,-0.12926 0.0878425,-0.212087 0,-0.0828268 -0.0335709,-0.157815 -0.0878425,-0.212087 -0.0542717,-0.0542717 -0.12926,-0.0878425 -0.212087,-0.0878425 -0.0828268,0 -0.157815,0.0335709 -0.212087,0.0878425 -0.0542717,0.0542717 -0.0878425,0.12926 -0.0878425,0.212087 0,0.0828268 0.0335709,0.157815 0.0878425,0.212087z"/>

<path class="fil2 str0" d="M3.41333 4.10666c-0.139173,0 -0.26574,0.0569764 -0.357528,0.148764 -0.0917874,0.0917874 -0.14876,0.21835 -0.14876,0.357524l0 1.14063 1.01258 0 0 -1.14063c0,-0.139173 -0.0569724,-0.265736 -0.14876,-0.357524 -0.0917874,-0.0917874 -0.218354,-0.148764 -0.357531,-0.148764z"/>

<path class="fil2 str0" d="M4.75701 4.47482l0 0.859803 0.736323 0 0 -0.859803c0,-0.101185 -0.041437,-0.19322 -0.108189,-0.259972 -0.066748,-0.066752 -0.158783,-0.108189 -0.259972,-0.108189 -0.101185,0 -0.19322,0.041437 -0.259972,0.108189 -0.066752,0.066752 -0.108189,0.158787 -0.108189,0.259972z"/>

<path class="fil2 str0" d="M2.06965 5.33463l0 -0.859803c0,-0.101185 -0.041437,-0.19322 -0.108189,-0.259972 -0.066752,-0.066752 -0.158787,-0.108189 -0.259972,-0.108189 -0.101189,0 -0.193224,0.041437 -0.259972,0.108189 -0.066752,0.066752 -0.108189,0.158787 -0.108189,0.259972l0 0.859803 0.736323 0z"/>

<polygon class="fil3 str0" points="3.46667,1.36778 3.80342,1.23307 3.46667,1.09837 "/>

</g>

<rect class="fil4" height="6.82666" width="6.82666"/>

</svg>