<?xml version="1.0" ?>

<!-- Uploaded to: SVG Repo, www.svgrepo.com, Generator: SVG Repo Mixer Tools -->
<svg width="100%" height="100%" viewBox="0 0 512 512" baseProfile="tiny" overflow="visible" version="1.1" xml:space="preserve" xmlns="http://www.w3.org/2000/svg" xmlns:xlink="http://www.w3.org/1999/xlink">

<g id="Layer_1"/>

<g id="Layer_2"/>

<g id="Layer_3"/>

<g id="Layer_4"/>

<g id="Layer_5"/>

<g id="Layer_6"/>

<g id="Layer_7"/>

<g id="Layer_8"/>

<g id="Layer_9"/>

<g id="Layer_10"/>

<g id="Layer_11"/>

<g id="Layer_12"/>

<g id="Layer_13"/>

<g id="Layer_14"/>

<g id="Layer_15"/>

<g id="Layer_16"/>

<g id="Layer_17"/>

<g id="Layer_18"/>

<g id="Layer_19"/>

<g id="Layer_20"/>

<g id="Layer_21"/>

<g id="Layer_22"/>

<g id="Layer_23"/>

<g id="Layer_24"/>

<g id="Layer_25"/>

<g id="Layer_26"/>

<g id="Layer_27"/>

<g id="Layer_28"/>

<g id="Layer_29"/>

<g id="Layer_30"/>

<g id="Layer_31"/>

<g id="Layer_32"/>

<g id="Layer_33"/>

<g id="Layer_34"/>

<g id="Layer_35"/>

<g id="Layer_36"/>

<g id="Layer_37"/>

<g id="Layer_38"/>

<g id="Layer_39"/>

<g id="Layer_40"/>

<g id="Layer_41"/>

<g id="Layer_42"/>

<g id="Layer_43"/>

<g id="Layer_44"/>

<g id="Layer_45"/>

<g id="Layer_46"/>

<g id="Layer_47"/>

<g id="Layer_48"/>

<g id="Layer_49"/>

<g id="Layer_50">

<g>

<g>

<path d="M103.949,131.067c-4.143,0-7.5-3.357-7.5-7.5V82.578c0-4.143,3.357-7.5,7.5-7.5s7.5,3.357,7.5,7.5v40.989     C111.449,127.71,108.092,131.067,103.949,131.067z" fill="#FF9000"/>

</g>

<g>

<path d="M256,131.067c-4.143,0-7.5-3.357-7.5-7.5V82.578c0-4.143,3.357-7.5,7.5-7.5s7.5,3.357,7.5,7.5v40.989     C263.5,127.71,260.143,131.067,256,131.067z" fill="#FF9000"/>

</g>

<g>

<path d="M406.276,131.067c-4.143,0-7.5-3.357-7.5-7.5V82.578c0-4.143,3.357-7.5,7.5-7.5s7.5,3.357,7.5,7.5v40.989     C413.776,127.71,410.419,131.067,406.276,131.067z" fill="#FF9000"/>

</g>

<path d="M484.871,486.913H33.59c-2.761,0-5-2.239-5-5V258.767c0-2.761,2.239-5,5-5h451.282c2.761,0,5,2.239,5,5    v223.146C489.871,484.675,487.633,486.913,484.871,486.913z" fill="#FFBE73"/>

<path d="M484.872,253.767h-20c2.761,0,5,2.239,5,5v223.146c0,2.762-2.239,5-5,5h20c2.761,0,5-2.238,5-5V258.767    C489.872,256.006,487.633,253.767,484.872,253.767z" fill="#FFB25A"/>

<path d="M489.871,354.6c-22.801,10.262-53.978-46.935-94.15-39.817c-28.005,4.962-32.288,35.61-55.659,35.234    c-27.429-0.44-35.804-47.421-59.531-46.293c-23.727,1.128-26.769,48.648-62.259,56.831c-19.496,4.495-37.511-5.48-40.839-7.323    c-30.172-16.708-31.777-51.528-44.968-50.608C120.066,303.49,120.753,333,96.82,348.832c-13.32,8.812-28.505,9.576-39.464,8.775    c-4.307-0.122-21.751-1.103-35.254-14.647C13.08,333.909,7.5,321.406,7.5,307.596V253.76c0-2.761,2.239-5,5-5h486.998    c2.761,0,5,2.239,5,5v53.836C504.637,340.493,497.251,351.279,489.871,354.6z" fill="#F54432"/>

<rect fill="#F54432" height="42.098" width="461.282" x="28.59" y="395.676"/>

<g>

<path d="M112.465,302.625c-12.399,0.865-11.712,30.375-35.646,46.207c-7.722,5.108-16.066,7.502-23.854,8.464     c1.95,0.218,3.472,0.285,4.391,0.311c10.959,0.801,26.144,0.037,39.464-8.775c16.031-10.604,21.016-27.334,26.287-37.494     C119.862,305.867,116.784,302.323,112.465,302.625z" fill="#E83826"/>

<path d="M260.531,303.725c-23.727,1.128-26.769,48.647-62.259,56.831c-0.218,0.05-0.435,0.089-0.652,0.136     c6.208,1.199,13.325,1.554,20.652-0.136c30.391-7.007,36.99-42.856,53.157-53.722     C268.125,304.726,264.549,303.534,260.531,303.725z" fill="#E83826"/>

<path d="M499.498,248.76h-20c2.761,0,5,2.239,5,5v53.836c0.12,28.209-5.295,40.153-11.494,45.08     c6.06,3.095,11.681,4.258,16.867,1.924c7.38-3.321,14.766-14.107,14.627-47.004V253.76     C504.498,250.998,502.26,248.76,499.498,248.76z" fill="#E83826"/>

<path d="M375.722,314.783c-23.264,4.123-30.167,25.955-45.232,33.018c2.932,1.356,6.099,2.161,9.573,2.216     c22.551,0.362,27.338-28.151,52.804-34.612C387.344,314.089,381.631,313.736,375.722,314.783z" fill="#E83826"/>

</g>

<rect fill="#E83826" height="42.099" width="20" x="469.871" y="395.676"/>

<path d="M269.222,119.91h-26.447c-2.761,0-5,2.239-5,5v123.85h36.447V124.91    C274.222,122.149,271.984,119.91,269.222,119.91z" fill="#59C230"/>

<path d="M269.222,119.91h-10c2.761,0,5,2.239,5,5v123.85h10V124.91C274.222,122.149,271.984,119.91,269.222,119.91    z" fill="#4EB229"/>

<path d="M419.498,119.91h-26.447c-2.761,0-5,2.239-5,5v123.85h36.447V124.91    C424.498,122.149,422.26,119.91,419.498,119.91z" fill="#59C230"/>

<path d="M118.946,119.91H92.5c-2.761,0-5,2.239-5,5v123.85h36.447V124.91    C123.946,122.149,121.708,119.91,118.946,119.91z" fill="#59C230"/>

<path d="M419.498,119.91h-10c2.761,0,5,2.239,5,5v123.85h10V124.91C424.498,122.149,422.26,119.91,419.498,119.91z    " fill="#4EB229"/>

<path d="M118.946,119.91h-10c2.761,0,5,2.239,5,5v123.85h10V124.91C123.946,122.149,121.708,119.91,118.946,119.91    z" fill="#4EB229"/>

<path d="M127.723,56.361c-0.36-2.133-3.527-17.732-20.877-30.337c-1.719-1.249-4.075-1.249-5.794,0    c-17.35,12.605-20.517,28.204-20.877,30.337c-0.026,0.152-0.044,0.302-0.057,0.456c-2.14,25.211,19.778,28.497,23.344,28.864    c0.325,0.033,0.647,0.033,0.972,0c3.566-0.367,25.485-3.654,23.344-28.864C127.766,56.662,127.748,56.513,127.723,56.361z" fill="#FF9000"/>

<path d="M279.773,56.361c-0.36-2.133-3.527-17.732-20.877-30.337c-1.719-1.249-4.075-1.249-5.794,0    c-17.35,12.605-20.517,28.204-20.877,30.337c-0.026,0.152-0.044,0.302-0.057,0.456c-2.14,25.211,19.778,28.497,23.344,28.864    c0.325,0.033,0.647,0.033,0.972,0c3.566-0.367,25.485-3.654,23.344-28.864C279.817,56.662,279.799,56.513,279.773,56.361z" fill="#FF9000"/>

<path d="M430.049,56.361c-0.36-2.133-3.527-17.732-20.877-30.337c-1.719-1.249-4.075-1.249-5.794,0    c-17.35,12.605-20.517,28.204-20.877,30.337c-0.026,0.152-0.044,0.302-0.057,0.456c-2.14,25.211,19.778,28.497,23.344,28.864    c0.325,0.033,0.647,0.033,0.972,0c3.566-0.367,25.485-3.654,23.345-28.864C430.093,56.662,430.075,56.513,430.049,56.361z" fill="#FF9000"/>

<path d="M127.779,56.816c-0.013-0.154-0.031-0.303-0.057-0.456c-0.36-2.133-3.527-17.732-20.877-30.337    c-1.719-1.249-4.075-1.249-5.795,0c-0.729,0.53-1.423,1.066-2.103,1.604c15.499,12.289,18.429,26.689,18.774,28.733    c0.026,0.152,0.043,0.302,0.057,0.456c1.673,19.711-11.36,26.02-18.831,28.01c2.084,0.555,3.736,0.775,4.514,0.855    c0.325,0.033,0.647,0.033,0.972,0C108.001,85.313,129.919,82.027,127.779,56.816z" fill="#F88000"/>

<path d="M279.83,56.816c-0.013-0.154-0.031-0.303-0.057-0.456c-0.36-2.133-3.527-17.732-20.877-30.337    c-1.719-1.249-4.075-1.249-5.794,0c-0.729,0.53-1.423,1.066-2.103,1.604c15.499,12.289,18.429,26.689,18.774,28.733    c0.026,0.152,0.044,0.302,0.057,0.456c1.673,19.711-11.36,26.02-18.831,28.01c2.084,0.555,3.736,0.775,4.514,0.855    c0.325,0.033,0.647,0.033,0.972,0C260.051,85.313,281.97,82.027,279.83,56.816z" fill="#F88000"/>

<path d="M430.106,56.816c-0.013-0.154-0.031-0.303-0.057-0.456c-0.36-2.133-3.527-17.732-20.877-30.337    c-1.719-1.249-4.075-1.249-5.794,0c-0.729,0.53-1.423,1.066-2.103,1.604c15.499,12.289,18.429,26.689,18.774,28.733    c0.026,0.152,0.044,0.302,0.057,0.456c1.673,19.711-11.36,26.02-18.831,28.01c2.084,0.555,3.736,0.775,4.514,0.855    c0.325,0.033,0.647,0.033,0.972,0C410.327,85.313,432.246,82.027,430.106,56.816z" fill="#F88000"/>

</g>

<g>

<g>

<path d="M484.865,494.94H33.584c-6.893,0-12.5-5.607-12.5-12.5V348.91c0-4.143,3.357-7.5,7.5-7.5s7.5,3.357,7.5,7.5v131.03     h446.28V355.13c0-4.143,3.357-7.5,7.5-7.5s7.5,3.357,7.5,7.5V482.44C497.365,489.333,491.757,494.94,484.865,494.94z"/>

</g>

<g>

<path d="M207.852,369.746c-14.49,0-27.041-5.542-34.056-9.427c-18.67-10.339-27.34-26.527-33.671-38.349     c-2.32-4.333-5.472-10.216-7.23-11.294c-1.534,0.877-4.249,6.821-6.056,10.78c-4.702,10.298-11.142,24.401-25.887,34.155     c-11.909,7.878-26.705,11.25-43.985,10.012c-7.403-0.234-25.752-2.37-40.182-16.845c-10.828-10.86-16.791-25.3-16.791-40.658     v-53.836c0-6.893,5.607-12.5,12.5-12.5h486.998c6.893,0,12.5,5.607,12.5,12.5v53.836c0.129,30.393-6.104,48.017-19.049,53.844     l0,0c-14.632,6.584-29.185-4.779-44.593-16.807c-15.442-12.055-32.946-25.724-51.326-22.465     c-11.45,2.029-18.165,9.409-25.274,17.223c-7.833,8.61-16.699,18.406-31.814,18.126c-17.798-0.286-28.387-14.845-37.729-27.689     c-7.095-9.754-13.774-18.989-21.324-18.611c-6.625,0.315-11.606,7.591-19.022,19.535c-8.861,14.273-19.891,32.036-41.907,37.113     C215.826,369.341,211.767,369.745,207.852,369.746z M133.087,295.628c9.947,0,14.962,9.366,20.262,19.262     c5.753,10.742,12.912,24.111,27.713,32.307c11.965,6.626,24.908,9.022,35.521,6.576c15.936-3.674,24.373-17.265,32.534-30.408     c7.903-12.73,16.076-25.894,31.053-26.605c15.633-0.742,25.471,12.813,34.168,24.771c7.985,10.979,15.528,21.349,25.84,21.515     c0.103,0.002,0.205,0.003,0.307,0.003c7.758,0,12.511-4.805,20.172-13.226c7.692-8.454,17.266-18.976,33.752-21.897     c24.959-4.422,46.148,12.119,63.174,25.41c11.741,9.165,22.829,17.814,29.206,14.953l0,0c3.113-1.401,10.341-8.117,10.205-40.134     v-51.368H14.995v51.336c0,11.36,4.409,22.038,12.414,30.068c10.732,10.766,24.663,12.29,30.155,12.445     c0.111,0.003,0.223,0.009,0.334,0.017c13.953,1.018,25.664-1.52,34.779-7.549c11.16-7.383,16.131-18.271,20.517-27.876     c4.231-9.268,8.606-18.851,18.743-19.558C132.328,295.642,132.711,295.628,133.087,295.628z"/>

</g>

<g>

<path d="M489.866,445.8H28.584c-4.143,0-7.5-3.357-7.5-7.5v-42.098c0-4.143,3.357-7.5,7.5-7.5h461.281c4.143,0,7.5,3.357,7.5,7.5     V438.3C497.366,442.442,494.008,445.8,489.866,445.8z M36.084,430.8h446.281v-27.098H36.084V430.8z"/>

</g>

<g>

<path d="M269.217,256.785H242.77c-6.893,0-12.5-5.607-12.5-12.5v-118.85c0-6.893,5.607-12.5,12.5-12.5h26.447     c6.893,0,12.5,5.607,12.5,12.5v118.85C281.717,251.178,276.11,256.785,269.217,256.785z M245.27,241.785h21.447v-113.85H245.27     V241.785z M269.217,127.936h0.01H269.217z"/>

</g>

<g>

<path d="M419.493,256.785h-26.446c-6.893,0-12.5-5.607-12.5-12.5v-118.85c0-6.893,5.607-12.5,12.5-12.5h26.446     c6.893,0,12.5,5.607,12.5,12.5v118.85C431.993,251.178,426.385,256.785,419.493,256.785z M395.546,241.785h21.446v-113.85     h-21.446V241.785z M419.493,127.936h0.01H419.493z"/>

</g>

<g>

<path d="M118.941,256.785H92.495c-6.893,0-12.5-5.607-12.5-12.5v-118.85c0-6.893,5.607-12.5,12.5-12.5h26.446     c6.893,0,12.5,5.607,12.5,12.5v118.85C131.441,251.178,125.833,256.785,118.941,256.785z M94.995,241.785h21.446v-113.85H94.995     V241.785z M118.941,127.936h0.01H118.941z"/>

</g>

<g>

<path d="M103.943,122.929c-4.143,0-7.5-3.357-7.5-7.5V91.766c0-4.143,3.357-7.5,7.5-7.5s7.5,3.357,7.5,7.5v23.663     C111.443,119.571,108.085,122.929,103.943,122.929z"/>

</g>

<g>

<path d="M103.942,93.73c-0.417,0-0.833-0.021-1.246-0.063c-12.227-1.259-32.307-10.458-30.056-36.96     c0.027-0.344,0.071-0.695,0.131-1.055c0.574-3.403,4.41-21.035,23.867-35.171c4.367-3.175,10.24-3.175,14.609-0.001     c19.448,14.13,23.292,31.765,23.865,35.156c0.001,0.005,0.002,0.011,0.003,0.016c0.06,0.359,0.104,0.711,0.133,1.074     c2.249,26.482-17.831,35.682-30.051,36.94C104.78,93.709,104.36,93.73,103.942,93.73z M87.581,58.046     c-1.374,16.705,10.751,20.026,16.363,20.669c5.605-0.641,17.746-3.961,16.363-20.668c-0.316-1.771-2.906-13.805-16.364-24.293     C90.474,44.251,87.893,56.283,87.581,58.046z M120.301,57.977c0,0.002,0,0.003,0,0.005     C120.301,57.979,120.301,57.979,120.301,57.977z M87.587,57.957c0,0.003,0,0.006-0.001,0.009     C87.587,57.963,87.587,57.96,87.587,57.957z"/>

</g>

<g>

<path d="M255.994,122.929c-4.143,0-7.5-3.357-7.5-7.5V91.766c0-4.143,3.357-7.5,7.5-7.5s7.5,3.357,7.5,7.5v23.663     C263.494,119.571,260.136,122.929,255.994,122.929z"/>

</g>

<g>

<path d="M255.992,93.73c-0.417,0-0.833-0.021-1.246-0.063c-12.226-1.259-32.306-10.459-30.056-36.959     c0.034-0.392,0.078-0.743,0.14-1.102c0.566-3.357,4.402-20.989,23.858-35.125c4.37-3.175,10.242-3.174,14.61-0.001     c19.421,14.11,23.278,31.701,23.861,35.14c0.061,0.354,0.104,0.701,0.136,1.06c2.252,26.528-17.828,35.729-30.047,36.987     C256.831,93.709,256.411,93.73,255.992,93.73z M239.628,58.058c-1.389,16.689,10.75,20.014,16.365,20.657     c5.604-0.641,17.742-3.959,16.364-20.658c-0.305-1.726-2.867-13.785-16.364-24.304C242.495,44.272,239.932,56.336,239.628,58.058     z M272.376,58.16c0,0.002,0,0.003,0.001,0.005C272.376,58.163,272.376,58.162,272.376,58.16z M239.619,58.117     c-0.001,0.005-0.002,0.01-0.003,0.015C239.617,58.128,239.618,58.123,239.619,58.117z"/>

</g>

<g>

<path d="M406.27,122.929c-4.143,0-7.5-3.357-7.5-7.5V91.766c0-4.143,3.357-7.5,7.5-7.5s7.5,3.357,7.5,7.5v23.663     C413.77,119.571,410.413,122.929,406.27,122.929z"/>

</g>

<g>

<path d="M406.268,93.73c-0.417,0-0.833-0.021-1.246-0.063c-12.226-1.259-32.306-10.458-30.056-36.959     c0.032-0.376,0.074-0.712,0.131-1.056c0.576-3.407,4.42-21.042,23.867-35.171c4.372-3.177,10.243-3.173,14.611,0     c19.456,14.136,23.292,31.768,23.863,35.158c0.001,0.004,0.002,0.009,0.003,0.013c0.06,0.359,0.104,0.711,0.133,1.074     c2.249,26.482-17.831,35.682-30.051,36.94C407.106,93.709,406.686,93.73,406.268,93.73z M389.906,58.048     c-1.394,16.699,10.747,20.023,16.364,20.667c5.606-0.641,17.748-3.959,16.363-20.669c-0.313-1.761-2.892-13.795-16.363-24.292     C392.808,44.244,390.221,56.279,389.906,58.048z M422.627,57.977c0,0.002,0,0.003,0,0.005     C422.627,57.979,422.627,57.979,422.627,57.977z"/>

</g>

</g>

</g>

</svg>