<?xml version="1.0" encoding="iso-8859-1"?>
<!-- Uploaded to: SVG Repo, www.svgrepo.com, Generator: SVG Repo Mixer Tools -->
<svg height="100%" width="100%" version="1.1" id="Layer_1" xmlns="http://www.w3.org/2000/svg" xmlns:xlink="http://www.w3.org/1999/xlink" 
	 viewBox="0 0 512.002 512.002" xml:space="preserve">
<circle style="fill:#03203B;" cx="433.946" cy="364.225" r="67.561"/>
<circle style="fill:#FFA036;" cx="433.946" cy="364.225" r="22.983"/>
<path style="fill:#FEBBA0;" d="M213.844,319.042v20.351c0,6.799-4.088,12.931-10.364,15.547l-67.235,28.014
	c-14.205,5.919-23.457,22.005-23.457,37.394v81.084h286.326v-81.084c0-15.387-9.253-31.476-23.457-37.394l-67.235-28.014
	c-6.277-2.615-10.364-8.748-10.364-15.547v-20.351H213.844z"/>
<path style="fill:#FF5957;" d="M375.658,382.954l-67.235-28.014c-5.657-2.357-9.526-7.575-10.236-13.56v12.815
	c0,23.237-19.012,42.251-42.251,42.251l0,0c-23.237,0-42.25-19.012-42.25-42.251v-12.556c-0.79,5.876-4.631,10.977-10.207,13.3
	l-67.235,28.014c-14.205,5.919-23.457,22.005-23.457,37.394v81.084h286.325v-81.084C399.114,404.96,389.86,388.872,375.658,382.954z
	"/>
<path style="fill:#FEBBA0;" d="M161.928,199.098v-30.44h0.368c0-51.826,42.014-93.839,93.839-93.839
	c51.826,0,93.839,42.014,93.839,93.839v30.44v46.801v17.47c-1.126,14.733-8.479,27.851-19.358,35.035l-56.4,32.34
	c-11.359,7.502-25.17,7.502-36.53,0l-56.569-32.34c-10.878-7.184-18.063-20.302-19.19-35.035v-17.47v-46.801H161.928z"/>
<path style="fill:#703E41;" d="M212.11,176.183c-18.276,0-35.16-5.929-48.863-15.949c4.26-47.878,44.473-85.416,93.459-85.416
	c47.285,0,86.394,34.975,92.886,80.466c-25.076-0.116-47.133-12.977-60.045-32.437C277.644,154.027,247.473,176.183,212.11,176.183z
	"/>
<g>
	<circle style="fill:#03203B;" cx="55.421" cy="329.29" r="44.922"/>
	<path style="fill:#03203B;" d="M72.135,371.673v84.837c0,9.193-7.522,16.715-16.715,16.715s-16.715-7.522-16.715-16.715v-84.837"/>
</g>
<path style="fill:#1991E2;" d="M55.42,284.369c24.809,0,44.922,20.113,44.922,44.922H10.498
	C10.498,304.482,30.611,284.369,55.42,284.369z"/>
<g>
	<path style="fill:#0F8EE3;" d="M161.913,247.628h-21.2c-12.636,0-22.876-10.241-22.876-22.876v-41.354
		c0-12.635,10.241-22.876,22.876-22.876h21.2V247.628z"/>
	<path style="fill:#0F8EE3;" d="M349.593,160.522h21.201c12.635,0,22.876,10.241,22.876,22.876v41.354
		c0,12.635-10.241,22.876-22.876,22.876h-21.201V160.522z"/>
</g>
<polygon style="fill:#FFA036;" points="448.142,10.571 460.75,49.376 501.553,49.376 468.543,73.359 481.151,112.164 
	448.142,88.181 415.133,112.164 427.741,73.359 394.732,49.376 435.533,49.376 "/>
<path d="M433.949,397.659c-18.434,0-33.43-14.997-33.43-33.43s14.997-33.43,33.43-33.43c18.434,0,33.43,14.997,33.43,33.43
	S452.382,397.659,433.949,397.659z M433.949,351.693c-6.913,0-12.536,5.624-12.536,12.536c0,6.913,5.624,12.536,12.536,12.536
	c6.913,0,12.536-5.624,12.536-12.536C446.485,357.316,440.861,351.693,433.949,351.693z"/>
<path d="M10.584,511.879h-0.137C4.677,511.879,0,507.202,0,501.432s4.677-10.447,10.447-10.447h0.137
	c5.77,0,10.447,4.677,10.447,10.447S16.354,511.879,10.584,511.879z"/>
<path d="M501.455,511.879h-0.137c-5.77,0-10.447-4.677-10.447-10.447s4.677-10.447,10.447-10.447h0.137
	c5.77,0,10.447,4.677,10.447,10.447S507.225,511.879,501.455,511.879z"/>
<path d="M294.05,235.405c-6.44,0-11.678-5.238-11.678-11.677c0-6.44,5.238-11.678,11.678-11.678s11.678,5.238,11.678,11.678
	C305.728,230.167,300.489,235.405,294.05,235.405z"/>
<path d="M217.852,235.405c-6.44,0-11.678-5.238-11.678-11.677c0-6.44,5.238-11.678,11.678-11.678s11.678,5.238,11.678,11.678
	C229.528,230.167,224.29,235.405,217.852,235.405z"/>
<path d="M255.995,292.375c-11.389,0-20.656-9.266-20.656-20.656c0-5.77,4.677-10.447,10.447-10.447h20.418
	c5.77,0,10.447,4.677,10.447,10.447C276.649,283.109,267.384,292.375,255.995,292.375z"/>
<path d="M110.789,329.291c0-30.53-24.839-55.369-55.369-55.369S0.051,298.761,0.051,329.291c0,20.664,11.386,38.708,28.207,48.22
	v78.999c0,14.977,12.185,27.162,27.162,27.162s27.162-12.185,27.162-27.162v-78.999C99.403,367.999,110.789,349.955,110.789,329.291
	z M55.42,363.766c-15.369,0-28.417-10.111-32.853-24.028h65.705C83.837,353.656,70.789,363.766,55.42,363.766z M55.42,294.816
	c15.369,0,28.417,10.111,32.853,24.028H22.568C27.003,304.927,40.052,294.816,55.42,294.816z M61.688,456.51
	c0,3.397-2.871,6.268-6.268,6.268s-6.268-2.871-6.268-6.268v-72.215c2.059,0.233,4.147,0.365,6.268,0.365s4.209-0.132,6.268-0.365
	V456.51z"/>
<path d="M415.133,122.611c-2.155,0-4.309-0.665-6.141-1.995c-3.662-2.661-5.193-7.377-3.795-11.681l10.263-31.586l-26.869-19.521
	c-3.662-2.66-5.193-7.376-3.795-11.681c1.399-4.304,5.409-7.219,9.936-7.219h33.212l10.263-31.586
	c1.399-4.304,5.41-7.219,9.936-7.219l0,0c4.527,0,8.537,2.915,9.936,7.219l10.263,31.586h33.212c4.527,0,8.537,2.915,9.936,7.219
	c1.398,4.305-0.134,9.02-3.795,11.681l-26.87,19.521l10.263,31.586c1.398,4.304-0.134,9.02-3.795,11.681
	c-3.662,2.66-8.62,2.66-12.281,0l-26.869-19.521l-26.87,19.521C419.442,121.946,417.287,122.611,415.133,122.611z M426.884,59.823
	l6.997,5.083c3.662,2.66,5.193,7.377,3.795,11.681l-2.673,8.227l6.998-5.085c3.662-2.66,8.619-2.661,12.281,0l6.997,5.085
	l-2.673-8.227c-1.398-4.305,0.134-9.02,3.795-11.681l6.997-5.083h-8.649c-4.526,0-8.537-2.915-9.936-7.219l-2.672-8.227
	l-2.673,8.227c-1.399,4.304-5.41,7.219-9.936,7.219C435.533,59.823,426.884,59.823,426.884,59.823z"/>
<path d="M289.682,466.958h-0.137c-5.77,0-10.447-4.677-10.447-10.447c0-5.77,4.677-10.447,10.447-10.447h0.137
	c5.77,0,10.447,4.677,10.447,10.447C300.129,462.281,295.452,466.958,289.682,466.958z"/>
<path d="M362.673,466.957h-39.194c-5.77,0-10.447-4.677-10.447-10.447s4.677-10.447,10.447-10.447h39.194
	c5.77,0,10.447,4.677,10.447,10.447S368.443,466.957,362.673,466.957z"/>
<path d="M67.1,76.659h-5.219V71.44c0-5.77-4.677-10.447-10.447-10.447S40.987,65.67,40.987,71.44v5.219h-5.22
	c-5.77,0-10.447,4.677-10.447,10.447s4.677,10.447,10.447,10.447h5.22v5.22c0,5.77,4.677,10.447,10.447,10.447
	s10.447-4.677,10.447-10.447v-5.22H67.1c5.77,0,10.447-4.677,10.447-10.447S72.87,76.659,67.1,76.659z"/>
<path d="M433.949,442.233c43.011,0,78.004-34.993,78.004-78.004s-34.992-78.004-78.004-78.004
	c-42.745,0-77.553,34.563-77.985,77.206l-43.524-18.135c-2.081-0.867-3.52-2.737-3.857-4.915c-0.005-0.05-0.01-0.1-0.016-0.15
	c-0.037-0.276-0.063-0.554-0.063-0.838v-16.268l27.307-15.658c0.19-0.109,0.377-0.225,0.561-0.346
	c13.673-9.029,22.652-25.088,24.018-42.957c0.021-0.264,0.03-0.531,0.03-0.796v-5.295h10.374c18.374,0,33.322-14.949,33.322-33.322
	v-41.353c0-14.426-9.216-26.737-22.068-31.363c-4.383-65.784-59.25-117.964-126.075-117.964
	c-66.774,0-121.609,52.101-126.066,117.813c-13.084,4.5-22.516,16.922-22.516,31.513v41.354c0,18.374,14.949,33.323,33.323,33.323
	h10.768v5.295c0,0.265,0.01,0.532,0.03,0.796c1.372,17.942,10.287,34,23.849,42.957c0.187,0.123,0.378,0.24,0.572,0.352
	l27.464,15.701v16.218c0,2.59-1.545,4.907-3.935,5.904l-67.236,28.015c-17.596,7.333-29.885,26.674-29.885,47.036v70.637H44.433
	c-5.77,0-10.447,4.677-10.447,10.447c0,5.77,4.677,10.447,10.447,10.447h423.138c5.77,0,10.447-4.677,10.447-10.447
	c0-5.77-4.677-10.447-10.447-10.447h-58.01v-52.636C417.373,440.928,425.537,442.233,433.949,442.233z M383.222,183.398v41.354
	c0,6.853-5.576,12.428-12.428,12.428h-10.374v-66.212h10.374C377.647,170.969,383.222,176.545,383.222,183.398z M151.481,237.181
	h-10.768c-6.853,0-12.429-5.576-12.429-12.429v-41.354c0-6.853,5.576-12.428,12.429-12.428h10.768V237.181z M153.509,150.075h-2.493
	c5.262-53.319,50.323-95.11,104.957-95.11s99.693,41.791,104.957,95.11h-2.168c-8.789-48.669-51.463-85.705-102.627-85.705
	S162.298,101.406,153.509,150.075z M335.517,143.137c-15.096-3.605-28.46-12.796-37.264-26.065
	c-2.164-3.261-5.966-5.035-9.858-4.607c-3.889,0.433-7.212,3.001-8.607,6.658c-10.644,27.881-37.842,46.614-67.678,46.614
	c-13.647,0-26.744-3.757-38.201-10.902c6.608-39.424,40.953-69.57,82.225-69.57C293.217,85.264,324.71,109.601,335.517,143.137z
	 M172.375,262.949v-85.19c12.339,5.832,25.816,8.871,39.736,8.871c19.279,0,37.784-5.834,53.516-16.87
	c10.644-7.467,19.505-16.93,26.162-27.85c12.88,12.694,29.592,20.835,47.647,23.133c0.051,1.199,0.092,2.402,0.092,3.614v94.29
	c-0.949,11.048-6.442,21.172-14.417,26.572l-56.09,32.161c-0.191,0.11-0.377,0.225-0.561,0.346c-7.83,5.173-17.182,5.173-25.015,0
	c-0.187-0.123-0.377-0.241-0.572-0.352l-56.253-32.159C178.635,284.11,173.336,274.225,172.375,262.949z M232.228,339.657
	c7.333,4.763,15.528,7.144,23.723,7.144c8.198,0,16.394-2.383,23.728-7.148l7.931-4.548v19.09c0,17.536-14.139,31.803-31.675,31.803
	s-31.803-14.266-31.803-31.803l0.158-19.076L232.228,339.657z M388.667,490.985H123.235v-70.637c0-11.775,7.32-23.705,17.028-27.75
	l64.282-26.784c5.307,23.484,26.326,41.08,51.391,41.08c25.069,0,46.09-17.601,51.393-41.09l64.309,26.795
	c9.707,4.045,17.028,15.974,17.028,27.75v70.636H388.667z M409.345,415.76c-1.679-18.626-13.402-35.671-29.67-42.449l-2.281-0.95
	c-0.011-0.103-0.013-0.205-0.026-0.308c-0.351-2.575-0.53-5.208-0.53-7.824c0-31.49,25.619-57.11,57.11-57.11
	c31.49,0,57.11,25.619,57.11,57.11c0,31.491-25.619,57.11-57.11,57.11C425.31,421.339,417.044,419.448,409.345,415.76z"/>
</svg>