<?xml version="1.0" encoding="utf-8"?>
<!-- Uploaded to: SVG Repo, www.svgrepo.com, Generator: SVG Repo Mixer Tools -->
<svg height="100%" width="100%" viewBox="0 0 1024 1024" class="icon"  version="1.1" xmlns="http://www.w3.org/2000/svg"><path d="M707.7 833.9c0 28.4-23 51.4-51.4 51.4H365c-28.4 0-51.4-23-51.4-51.4V182.7c0-28.4 23-51.4 51.4-51.4h291.3c28.4 0 51.4 23 51.4 51.4v651.2z" fill="#CDE9E3" /><path d="M656.3 114.1H365c-37.8 0-68.5 30.8-68.5 68.5v651.2c0 31.9 21.9 58.7 51.4 66.3v2.3c0 9.5 7.7 17.1 17.1 17.1h291.3c9.5 0 17.1-7.7 17.1-17.1v-2.3c29.5-7.6 51.4-34.4 51.4-66.3V182.7c0.1-37.8-30.7-68.6-68.5-68.6z m34.3 719.8c0 18.9-15.4 34.3-34.3 34.3H365c-18.9 0-34.3-15.4-34.3-34.3V405.5h359.9v428.4z m0-462.7H330.7V182.7c0-18.9 15.4-34.3 34.3-34.3h291.3c18.9 0 34.3 15.4 34.3 34.3v188.5z" fill="#211F1E" /><path d="M373.6 268.2c-4.7 0-8.6 3.8-8.6 8.6V311c0 4.7 3.8 8.6 8.6 8.6 4.7 0 8.6-3.8 8.6-8.6v-34.3c-0.1-4.7-3.9-8.5-8.6-8.5zM373.6 662.5c4.7 0 8.6-3.8 8.6-8.6V465.4c0-4.7-3.8-8.6-8.6-8.6-4.7 0-8.6 3.8-8.6 8.6v188.5c0 4.8 3.8 8.6 8.6 8.6z" fill="#211F1E" /></svg>