<?xml version="1.0" encoding="iso-8859-1"?>
<!-- Uploaded to: SVG Repo, www.svgrepo.com, Generator: SVG Repo Mixer Tools -->
<svg height="100%" width="100%" version="1.1" id="Layer_1" xmlns="http://www.w3.org/2000/svg" xmlns:xlink="http://www.w3.org/1999/xlink" 
	 viewBox="0 0 512 512" xml:space="preserve">
<g transform="translate(0 1)">
	<path style="fill:#434C6D;" d="M401.067,506.733h102.4V370.2h-102.4V506.733z"/>
	<path style="fill:#252E49;" d="M418.133,370.2H486.4v-27.307c0-8.533-6.827-15.36-15.36-15.36h-37.547
		c-8.533,0-15.36,6.827-15.36,15.36V370.2z"/>
	<path d="M452.267,336.067c-5.12,0-8.533-3.413-8.533-8.533V11.8c0-5.12,3.413-8.533,8.533-8.533S460.8,6.68,460.8,11.8v315.733
		C460.8,332.653,457.387,336.067,452.267,336.067z"/>
	<path d="M477.867,284.867h-51.2c-5.12,0-8.533-3.413-8.533-8.533s3.413-8.533,8.533-8.533h51.2c5.12,0,8.533,3.413,8.533,8.533
		S482.987,284.867,477.867,284.867z"/>
	<path d="M486.4,259.267h-68.267c-5.12,0-8.533-3.413-8.533-8.533c0-5.12,3.413-8.533,8.533-8.533H486.4
		c5.12,0,8.533,3.413,8.533,8.533C494.933,255.853,491.52,259.267,486.4,259.267z"/>
	<path d="M494.933,233.667H409.6c-5.12,0-8.533-3.413-8.533-8.533c0-5.12,3.413-8.533,8.533-8.533h85.333
		c5.12,0,8.533,3.413,8.533,8.533C503.467,230.253,500.053,233.667,494.933,233.667z"/>
	<path d="M503.467,208.067h-102.4c-5.12,0-8.533-3.413-8.533-8.533c0-5.12,3.413-8.533,8.533-8.533h102.4
		c5.12,0,8.533,3.413,8.533,8.533C512,204.653,508.587,208.067,503.467,208.067z"/>
	<path d="M503.467,182.467h-102.4c-5.12,0-8.533-3.413-8.533-8.533c0-5.12,3.413-8.533,8.533-8.533h102.4
		c5.12,0,8.533,3.413,8.533,8.533C512,179.053,508.587,182.467,503.467,182.467z"/>
	<path d="M503.467,156.867h-102.4c-5.12,0-8.533-3.413-8.533-8.533c0-5.12,3.413-8.533,8.533-8.533h102.4
		c5.12,0,8.533,3.413,8.533,8.533C512,153.453,508.587,156.867,503.467,156.867z"/>
	<path d="M503.467,131.267h-102.4c-5.12,0-8.533-3.413-8.533-8.533s3.413-8.533,8.533-8.533h102.4c5.12,0,8.533,3.413,8.533,8.533
		S508.587,131.267,503.467,131.267z"/>
	<path d="M494.933,105.667H409.6c-5.12,0-8.533-3.413-8.533-8.533S404.48,88.6,409.6,88.6h85.333c5.12,0,8.533,3.413,8.533,8.533
		S500.053,105.667,494.933,105.667z"/>
	<path d="M486.4,80.067h-68.267c-5.12,0-8.533-3.413-8.533-8.533c0-5.12,3.413-8.533,8.533-8.533H486.4
		c5.12,0,8.533,3.413,8.533,8.533C494.933,76.653,491.52,80.067,486.4,80.067z"/>
	<path d="M477.867,54.467h-51.2c-5.12,0-8.533-3.413-8.533-8.533s3.413-8.533,8.533-8.533h51.2c5.12,0,8.533,3.413,8.533,8.533
		S482.987,54.467,477.867,54.467z"/>
	<path d="M469.333,28.867H435.2c-5.12,0-8.533-3.413-8.533-8.533S430.08,11.8,435.2,11.8h34.133c5.12,0,8.533,3.413,8.533,8.533
		S474.453,28.867,469.333,28.867z"/>
	<path style="fill:#434C6D;" d="M230.4,506.733h102.4V336.067H230.4V506.733z"/>
	<path style="fill:#252E49;" d="M230.4,336.067h102.4V293.4H230.4V336.067z"/>
	<path style="fill:#F4A2B4;" d="M313.173,117.613c8.533,8.533,1.707,29.867-15.36,46.933c-17.067,17.067-38.4,24.747-46.933,15.36
		c-8.533-9.387-1.707-29.867,15.36-46.933S304.64,109.08,313.173,117.613"/>
	<path style="fill:#D75D72;" d="M296.96,165.4c-17.067,17.067-38.4,24.747-46.933,15.36c-0.853-0.853-1.707-2.56-2.56-4.267V293.4
		h68.267V134.68C313.173,144.067,307.2,155.16,296.96,165.4"/>
	<g>
		<path style="fill:#252E49;" d="M179.2,498.2H68.267c-5.12,0-8.533-3.413-8.533-8.533s3.413-8.533,8.533-8.533H179.2
			c5.12,0,8.533,3.413,8.533,8.533S184.32,498.2,179.2,498.2"/>
		<path style="fill:#252E49;" d="M179.2,455.533H68.267c-5.12,0-8.533-3.413-8.533-8.533s3.413-8.533,8.533-8.533H179.2
			c5.12,0,8.533,3.413,8.533,8.533S184.32,455.533,179.2,455.533"/>
		<path style="fill:#252E49;" d="M179.2,412.867H68.267c-5.12,0-8.533-3.413-8.533-8.533c0-5.12,3.413-8.533,8.533-8.533H179.2
			c5.12,0,8.533,3.413,8.533,8.533C187.733,409.453,184.32,412.867,179.2,412.867"/>
		<path style="fill:#252E49;" d="M179.2,370.2H68.267c-5.12,0-8.533-3.413-8.533-8.533s3.413-8.533,8.533-8.533H179.2
			c5.12,0,8.533,3.413,8.533,8.533S184.32,370.2,179.2,370.2"/>
		<path style="fill:#252E49;" d="M179.2,327.533H68.267c-5.12,0-8.533-3.413-8.533-8.533c0-5.12,3.413-8.533,8.533-8.533H179.2
			c5.12,0,8.533,3.413,8.533,8.533C187.733,324.12,184.32,327.533,179.2,327.533"/>
		<path style="fill:#252E49;" d="M179.2,284.867H68.267c-5.12,0-8.533-3.413-8.533-8.533s3.413-8.533,8.533-8.533H179.2
			c5.12,0,8.533,3.413,8.533,8.533S184.32,284.867,179.2,284.867"/>
		<path style="fill:#252E49;" d="M179.2,242.2H68.267c-5.12,0-8.533-3.413-8.533-8.533c0-5.12,3.413-8.533,8.533-8.533H179.2
			c5.12,0,8.533,3.413,8.533,8.533C187.733,238.787,184.32,242.2,179.2,242.2"/>
		<path style="fill:#252E49;" d="M179.2,199.533H68.267c-5.12,0-8.533-3.413-8.533-8.533c0-5.12,3.413-8.533,8.533-8.533H179.2
			c5.12,0,8.533,3.413,8.533,8.533C187.733,196.12,184.32,199.533,179.2,199.533"/>
		<path style="fill:#252E49;" d="M179.2,156.867H68.267c-5.12,0-8.533-3.413-8.533-8.533c0-5.12,3.413-8.533,8.533-8.533H179.2
			c5.12,0,8.533,3.413,8.533,8.533C187.733,153.453,184.32,156.867,179.2,156.867"/>
		<path style="fill:#252E49;" d="M179.2,114.2H68.267c-5.12,0-8.533-3.413-8.533-8.533s3.413-8.533,8.533-8.533H179.2
			c5.12,0,8.533,3.413,8.533,8.533S184.32,114.2,179.2,114.2"/>
		<path style="fill:#252E49;" d="M179.2,71.533H68.267c-5.12,0-8.533-3.413-8.533-8.533s3.413-8.533,8.533-8.533H179.2
			c5.12,0,8.533,3.413,8.533,8.533S184.32,71.533,179.2,71.533"/>
		<path style="fill:#252E49;" d="M179.2,28.867H68.267c-5.12,0-8.533-3.413-8.533-8.533s3.413-8.533,8.533-8.533H179.2
			c5.12,0,8.533,3.413,8.533,8.533S184.32,28.867,179.2,28.867"/>
	</g>
	<path style="fill:#434C6D;" d="M40.96,11.8C18.773,11.8,0,30.573,0,52.76v403.627c0,23.04,18.773,41.813,40.96,41.813H76.8V11.8
		H40.96z"/>
</g>
</svg>