<?xml version="1.0" encoding="iso-8859-1"?>
<!-- Uploaded to: SVG Repo, www.svgrepo.com, Generator: SVG Repo Mixer Tools -->
<svg height="100%" width="100%" version="1.1" id="Layer_1" xmlns="http://www.w3.org/2000/svg" xmlns:xlink="http://www.w3.org/1999/xlink" 
	 viewBox="0 0 512.001 512.001" xml:space="preserve">
<path style="fill:#27B5F7;" d="M87.686,291.305l76.62,32.997c13.308,5.731,19.506,21.309,13.776,34.616l-6.326,14.69
	c-5.731,13.308-21.309,19.506-34.6s16,13.776l-76.62-32.997L87.686,291.305z"/>
<path style="fill:#FF5859;" d="M29.882,337.114c-15.519-6.684-22.682-24.683-15.999-40.203s24.683-22.682,40.203-15.999"/>
<polygon style="fill:#ECEBED;" points="88.325,289.822 63.329,259.449 20.639,358.579 60.699,353.968 "/>
<g>
	<path style="fill:#FEBBA0;" d="M213.864,319.12v20.353c0,6.799-4.088,12.932-10.365,15.549l-67.241,28.017
		c-14.206,5.92-23.459,22.008-23.459,37.397v81.092h286.352v-81.092c0-15.389-9.254-31.479-23.459-37.397l-67.242-28.017
		c-6.277-2.615-10.365-8.749-10.365-15.549V319.12H213.864z"/>
	<path style="fill:#FEBBA0;" d="M350.006,199.164v-30.443c0-51.83-42.017-93.848-93.848-93.848
		c-51.831,0-93.848,42.017-93.848,93.848h-0.368v30.443c-12.925,0-23.403,10.478-23.403,23.403s10.478,23.403,23.403,23.403v17.472
		c1.126,14.735,8.311,27.853,19.192,35.038l56.575,32.343c11.36,7.503,25.173,7.503,36.533,0l56.405-32.343
		c10.879-7.185,18.233-20.303,19.36-35.038v-17.472c12.925,0,23.403-10.478,23.403-23.403
		C373.409,209.642,362.931,199.164,350.006,199.164z"/>
</g>
<path style="fill:#1990DF;" d="M375.691,383.038l-67.241-28.017c-5.2-2.166-8.889-6.749-10.005-12.124
	c-8.884,14.064-24.556,23.413-42.42,23.413c-17.916,0-33.629-9.403-42.498-23.535c-1.085,5.427-4.789,10.063-10.029,12.247
	l-67.241,28.017c-14.206,5.92-23.459,22.008-23.459,37.397v81.092h286.352v-81.092C399.15,405.046,389.896,388.956,375.691,383.038z
	"/>
<g>
	<circle style="fill:#FF5957;" cx="456.627" cy="329.371" r="44.926"/>
	<path style="fill:#FF5957;" d="M439.909,371.756V456.6c0,9.194,7.523,16.717,16.717,16.717c9.194,0,16.717-7.523,16.717-16.717
		v-84.845"/>
</g>
<path style="fill:#1991E2;" d="M456.626,284.443c-24.812,0-44.926,20.114-44.926,44.926h89.852
	C501.552,304.558,481.438,284.443,456.626,284.443z"/>
<g>
	<path style="fill:#0C80D3;" d="M213.527,342.774c-1.085,5.427-4.789,10.063-10.029,12.247l-1.628,0.678l19.502,54.624
		l34.653-44.014C238.108,366.309,222.397,356.907,213.527,342.774z"/>
	<path style="fill:#0C80D3;" d="M298.526,342.774c1.086,5.427,4.789,10.063,10.029,12.247l1.628,0.678l-19.502,54.624
		l-34.653-44.014C273.944,366.309,289.656,356.907,298.526,342.774z"/>
</g>
<path style="fill:#C8624A;" d="M161.943,171.648c0,0-45.208-50.645,3.762-81.581c31.896-20.149,63.242-1.427,63.242-1.427
	s47.974-72.42,115.872-33.24c70.625,40.752,5.186,113.32,5.186,113.32c-13.704-10.022-32.518-29.041-50.796-29.041
	c-35.365,0-25.356,35.871-68.259,35.871S186.024,151.521,161.943,171.648z"/>
<path d="M294.078,235.476c-6.439,0-11.679-5.239-11.679-11.678c0-6.44,5.24-11.679,11.679-11.679s11.678,5.239,11.678,11.679
	C305.755,230.236,300.517,235.476,294.078,235.476z"/>
<path d="M217.871,235.476c-6.439,0-11.678-5.239-11.678-11.678c0-6.44,5.239-11.679,11.678-11.679s11.679,5.239,11.679,11.679
	C229.549,230.236,224.31,235.476,217.871,235.476z"/>
<path d="M256.018,292.451c-11.39,0-20.658-9.267-20.658-20.658c0-5.77,4.679-10.448,10.448-10.448h20.419
	c5.769,0,10.448,4.678,10.448,10.448C276.675,283.183,267.409,292.451,256.018,292.451z"/>
<path d="M10.585,511.975h-0.137C4.679,511.975,0,507.298,0,501.527s4.679-10.448,10.448-10.448h0.137
	c5.769,0,10.448,4.678,10.448,10.448S16.354,511.975,10.585,511.975z"/>
<path d="M501.501,511.974h-0.137c-5.769,0-10.448-4.678-10.448-10.448c0-5.77,4.679-10.448,10.448-10.448h0.137
	c5.769,0,10.448,4.678,10.448,10.448C511.949,507.297,507.27,511.974,501.501,511.974z"/>
<path d="M512,329.369c0-30.533-24.84-55.374-55.374-55.374s-55.374,24.841-55.374,55.374c0,20.666,11.387,38.712,28.209,48.226
	v79.006c0,14.978,12.185,27.165,27.165,27.165c14.979,0,27.165-12.186,27.165-27.165v-79.006
	C500.613,368.081,512,350.035,512,329.369z M456.626,363.848c-15.37,0-28.419-10.112-32.856-24.03h65.711
	C485.045,353.736,471.996,363.848,456.626,363.848z M456.626,294.891c15.37,0,28.419,10.112,32.856,24.03H423.77
	C428.207,305.003,441.256,294.891,456.626,294.891z M462.895,456.601c0,3.398-2.871,6.269-6.269,6.269
	c-3.398,0-6.269-2.871-6.269-6.269V384.38c2.059,0.233,4.148,0.365,6.269,0.365c2.121,0,4.209-0.132,6.269-0.365V456.601z"/>
<path d="M467.564,491.079h-57.965v-70.644c0-20.366-12.291-39.709-29.887-47.042l-67.241-28.016
	c-2.391-0.996-3.936-3.313-3.936-5.904v-16.269l27.311-15.659c0.19-0.11,0.377-0.225,0.56-0.346
	c13.674-9.03,22.653-25.09,24.019-42.96c0.021-0.264,0.03-0.531,0.03-0.796v-8.674c13.568-4.413,23.402-17.181,23.402-32.202
	c0-15.021-9.835-27.788-23.402-32.202v-17.829c8.28-10.221,32.196-43.193,26.824-77.167c-3.178-20.103-15.706-36.596-37.236-49.019
	c-31.375-18.105-63.978-17.346-94.281,2.196c-13.939,8.988-24.227,19.992-30.05,27.084c-13.032-5.071-39.018-11.178-65.584,5.603
	c-15.839,10.006-24.978,22.973-27.16,38.541c-3.426,24.428,12.095,47.32,18.529,55.599v14.992
	c-13.568,4.413-23.402,17.181-23.402,32.202c0,15.021,9.835,27.788,23.402,32.202v8.674c0,0.265,0.01,0.532,0.03,0.796
	c1.372,17.943,10.288,34.003,23.851,42.96c0.187,0.124,0.377,0.241,0.573,0.352l27.467,15.702v16.219
	c0,2.59-1.545,4.907-3.936,5.904l-8.802,3.667c0.063-4.771-0.815-9.56-2.637-14.138c-3.641-9.15-10.603-16.324-19.603-20.199
	L96.902,283.9c-0.166-0.24-0.322-0.487-0.51-0.716l-24.996-30.373c-2.316-2.813-5.926-4.214-9.536-3.705
	c-3.607,0.512-6.687,2.866-8.127,6.211l-5.646,13.11c-17.984-2.7-36.275,6.882-43.8,24.352c-4.336,10.07-4.493,21.224-0.439,31.411
	c2.732,6.864,7.16,12.729,12.836,17.156l-5.642,13.101c-1.474,3.425-1.013,7.375,1.212,10.366c1.984,2.669,5.103,4.214,8.381,4.214
	c0.397,0,0.797-0.022,1.197-0.068l36.384-4.186l33.194,14.295l-25.77,28.645c-3.858,4.29-3.509,10.896,0.779,14.756
	c1.997,1.796,4.495,2.68,6.985,2.68c2.859,0,5.708-1.167,7.771-3.46l30.493-33.896l1.523,0.656
	c-6.784,8.94-10.843,20.293-10.843,31.987v70.644H44.386c-5.769,0-10.448,4.678-10.448,10.448c0,5.77,4.679,10.448,10.448,10.448
	h423.178c5.769,0,10.448-4.678,10.448-10.448C478.012,495.756,473.333,491.079,467.564,491.079z M153.658,122.678
	c1.309-9.333,7.074-17.111,17.628-23.777c25.859-16.334,51.285-1.886,52.305-1.29c4.792,2.861,10.986,1.452,14.068-3.2
	c0.109-0.163,10.997-16.418,29.426-28.301c23.624-15.233,48.02-15.791,72.513-1.658c15.997,9.23,24.838,20.391,27.031,34.121
	c3.415,21.384-10.126,44.034-18.398,55.516c-0.277-0.223-0.555-0.447-0.836-0.673c-13.378-10.774-30.024-24.183-48.185-24.183
	c-21.824,0-31.006,11.381-38.385,20.525c-7.188,8.909-12.382,15.346-29.875,15.346c-16.569,0-25.798-3.838-33.941-7.224
	c-5.607-2.332-11.308-4.703-17.836-4.703c-4.492,0-9.377,1.123-14.889,4.155C158.937,149.241,151.838,135.66,153.658,122.678z
	 M186.636,289.591c-7.983-5.406-13.284-15.292-14.245-26.569V245.97c0-5.77-4.679-10.448-10.448-10.448
	c-7.143,0-12.954-5.812-12.954-12.954c0-7.142,5.812-12.954,12.954-12.954c5.769,0,10.448-4.678,10.448-10.448v-22.432
	c5.715-4.057,8.179-3.058,16.596,0.442c8.956,3.724,21.223,8.825,41.964,8.825c27.482,0,38.265-13.364,46.137-23.12
	c6.416-7.951,10.288-12.751,22.122-12.751c10.792,0,24.258,10.846,35.078,19.561c1.809,1.456,3.559,2.863,5.27,4.205v25.271
	c0,5.77,4.679,10.448,10.448,10.448c7.143,0,12.954,5.812,12.954,12.954c0,7.142-5.812,12.954-12.954,12.954
	c-5.769,0-10.448,4.678-10.448,10.448v17.05c-0.949,11.049-6.442,21.174-14.419,26.574l-56.094,32.164
	c-0.19,0.11-0.377,0.225-0.56,0.346c-7.834,5.173-17.184,5.173-25.018,0c-0.187-0.123-0.377-0.241-0.573-0.352L186.636,289.591z
	 M23.264,316.463c-1.989-5-1.914-10.476,0.215-15.419c2.88-6.688,8.979-11.001,15.71-11.956l-13.607,31.598
	C24.659,319.386,23.868,317.982,23.264,316.463z M53.497,344.281l-16.124,1.854l28.776-66.819l10.06,12.224L53.497,344.281z
	 M74.248,348.924l18.901-43.891l67.025,28.865c3.873,1.667,6.875,4.769,8.452,8.734c1.579,3.964,1.529,8.28-0.14,12.152l-1.84,4.272
	l-34.407,14.337c-0.194,0.082-0.384,0.171-0.578,0.255L74.248,348.924z M245.578,491.079H123.247v-70.644
	c0-11.776,7.321-23.707,17.029-27.753l55.456-23.107l15.802,44.261c1.279,3.582,4.402,6.184,8.155,6.798
	c0.563,0.092,1.126,0.137,1.686,0.137c3.171,0,6.208-1.446,8.208-3.985l15.996-20.316v94.608H245.578z M214.666,360.467
	c6.39,5.992,13.97,10.493,22.246,13.228l-12.056,15.314L214.666,360.467z M224.292,339.981c0.003-0.17,0.019-0.337,0.019-0.509
	v-4.274l7.939,4.539c7.334,4.763,15.529,7.144,23.725,7.144c8.198,0,16.396-2.383,23.731-7.148l7.931-4.548v4.288
	c0,0.213,0.019,0.422,0.023,0.633c-7.494,9.916-19.079,15.755-31.635,15.755C243.407,355.861,231.783,349.976,224.292,339.981z
	 M297.388,360.461l-10.192,28.547l-12.059-15.317C283.413,370.955,290.997,366.453,297.388,360.461z M266.474,396.468l15.997,20.318
	c2,2.54,5.037,3.985,8.208,3.985c0.559,0,1.123-0.045,1.686-0.137c3.753-0.613,6.876-3.217,8.155-6.798l15.789-44.223l55.366,23.069
	c9.707,4.044,17.028,15.976,17.028,27.753v70.644H266.474V396.468z"/>
<path d="M296.554,467.049h-0.137c-5.769,0-10.448-4.678-10.448-10.448s4.679-10.448,10.448-10.448h0.137
	c5.769,0,10.448,4.678,10.448,10.448S302.324,467.049,296.554,467.049z"/>
<path d="M369.553,467.048h-39.199c-5.769,0-10.448-4.678-10.448-10.448c0-5.77,4.679-10.448,10.448-10.448h39.199
	c5.769,0,10.448,4.678,10.448,10.448C380.001,462.37,375.322,467.048,369.553,467.048z"/>
<path d="M444.088,78.386c-2.675,0-5.347-1.02-7.388-3.06c-4.08-4.08-4.08-10.696,0-14.777l10.97-10.97
	c4.081-4.08,10.694-4.08,14.777,0c4.08,4.08,4.08,10.696,0,14.777l-10.97,10.97C449.436,77.366,446.762,78.386,444.088,78.386z"/>
<path d="M501.552,138.462c-2.675,0-5.347-1.02-7.388-3.06l-12.538-12.538c-4.08-4.08-4.08-10.696,0-14.777
	c4.081-4.08,10.695-4.08,14.777,0l12.538,12.538c4.08,4.08,4.08,10.696,0,14.777C506.899,137.442,504.226,138.462,501.552,138.462z"
	/>
<path d="M429.935,191.994c-2.675,0-5.347-1.02-7.388-3.06c-4.08-4.08-4.08-10.696,0-14.777l9.553-9.553
	c4.081-4.08,10.694-4.08,14.777,0c4.08,4.08,4.08,10.696,0,14.777l-9.553,9.553C435.282,190.974,432.609,191.994,429.935,191.994z"
	/>
<path d="M416.797,253.784c-2.675,0-5.347-1.02-7.388-3.06l-11.588-11.587c-4.08-4.08-4.08-10.696,0-14.775
	c4.079-4.08,10.694-4.081,14.777,0l11.588,11.587c4.08,4.08,4.08,10.696,0,14.775C422.146,252.764,419.471,253.784,416.797,253.784z
	"/>
<path d="M17.551,27.975c-2.675,0-5.347-1.02-7.388-3.06l-7.052-7.052c-4.08-4.08-4.08-10.696,0-14.777
	c4.081-4.08,10.695-4.08,14.777,0l7.052,7.052c4.08,4.08,4.08,10.696,0,14.777C22.899,26.955,20.225,27.975,17.551,27.975z"/>
<path d="M85.985,96.409c-2.675,0-5.347-1.02-7.388-3.06c-4.08-4.08-4.08-10.696,0-14.777l7.314-7.314
	c4.081-4.08,10.695-4.08,14.777,0c4.08,4.08,4.08,10.696,0,14.777l-7.314,7.314C91.333,95.389,88.659,96.409,85.985,96.409z"/>
<path d="M109.142,211.006c-2.675,0-5.347-1.02-7.388-3.06c-4.08-4.08-4.08-10.696,0-14.777l7.314-7.314
	c4.081-4.08,10.695-4.08,14.777,0c4.08,4.08,4.08,10.696,0,14.777l-7.314,7.314C114.49,209.986,111.816,211.006,109.142,211.006z"/>
<path d="M37.99,151.869c-2.675,0-5.347-1.02-7.388-3.06l-5.256-5.257c-4.08-4.08-4.08-10.696,0.001-14.775
	c4.08-4.08,10.695-4.079,14.775,0l5.256,5.257c4.08,4.08,4.08,10.696-0.001,14.775C43.337,150.85,40.663,151.869,37.99,151.869z"/>
</svg>