<?xml version="1.0" encoding="utf-8"?>
<!-- Uploaded to: SVG Repo, www.svgrepo.com, Generator: SVG Repo Mixer Tools -->
<svg fill="#000000" version="1.1" id="Layer_1" xmlns="http://www.w3.org/2000/svg" xmlns:xlink="http://www.w3.org/1999/xlink" 
	 height="100%" width="100%" viewBox="0 0 210 256" enable-background="new 0 0 210 256" xml:space="preserve">
<path d="M174.55,144.5L174.55,144.5c-1.4-4-5-6.5-9.2-6.5H159V23c0-11.708-9.292-21-21-21H25C12.57,2,2,12.57,2,25v183
	c0,11.9,10.95,22,22.75,22l114.213,0c1.207,0,2.27,0.984,2.18,2.188c-0.095,1.266-1.153,1.812-2.393,1.812h-45.5L128,254h80
	L174.55,144.5z M82.05,220.2c-3.199,0-5.599-2.399-5.6-5.598c-0.001-3.045,2.557-5.602,5.602-5.602
	c3.199,0.001,5.598,2.401,5.598,5.6C87.55,217.8,85.25,220.2,82.05,220.2z M144,138h-19.65c-5.3,0-9.8,4.7-9.8,10l0,0
	c0,5.3,4.5,10,9.8,10h19.8v42H18V31h126V138z M81.226,185.644L81.226,185.644c-6.536,0-11.883-5.347-11.883-11.883V93.22
	c0-0.478,0.032-0.949,0.088-1.413c-8.659-4.333-14.608-13.28-14.608-23.621c0-11.175,6.946-20.722,16.754-24.576v24.576h19.3V43.611
	c9.807,3.854,16.754,13.401,16.754,24.576c0,10.341-5.949,19.289-14.608,23.621c0.056,0.464,0.088,0.934,0.088,1.413v80.54
	C93.109,180.296,87.761,185.644,81.226,185.644z"/>
</svg>