<?xml version="1.0" encoding="utf-8"?>
<!-- Uploaded to: SVG Repo, www.svgrepo.com, Generator: SVG Repo Mixer Tools -->
<svg height="100%" width="100%" fill="#000000" version="1.1" id="Layer_1" xmlns="http://www.w3.org/2000/svg" xmlns:xlink="http://www.w3.org/1999/xlink" 
	 width="800px" height="800px" viewBox="0 0 236 256" enable-background="new 0 0 236 256" xml:space="preserve">
<path d="M117.5,2c-12.47,0-22.63,10.16-22.63,22.63c0,12.46,10.06,22.62,22.63,22.62c12.37,0,22.62-10.16,22.62-22.62
	C140.12,12.16,129.97,2,117.5,2z M146,52H89c-15.59,0-28,13.41-28,29v32h20V86c0-1.71,1.29-3,3-3s3,1.29,3,3v27h61V86
	c0-1.71,1.29-3,3-3s3,1.29,3,3v27h20V81C174,65.51,161.49,52,146,52z M2,118v27h23v109h185V145h24v-27H2z M172.24,213.59
	l-25.12-0.11l0.22-11.52l-28.42,11.63H64.38c0,0-4.39-9,6.36-15.91c5.16-3.41,15.26-6.04,24.47-11.2c8.01-4.5,18-15.58,22.61-20.95
	c0.22-0.33,0.55-0.55,0.77-0.88c0.65-0.55,1.42-0.88,2.41-0.88c0.66,0,1.21,0.22,1.76,0.44c0.11,0.11,0.33,0.22,0.54,0.33
	c4.17,2.52,12.08,6.47,20.41,5.81c10.21-0.76,21.29-9.76,21.29-9.76s6.7,9.1,7.35,21.39C172.57,187.69,172.57,208.54,172.24,213.59z
	 M122.87,170.68c-0.55,0-1.1,0.11-1.65,0.44c-0.22,0.22-0.44,0.33-0.66,0.55c-1.21,1.32-1.21,3.29,0.11,4.5s3.29,1.21,4.5-0.11
	c1.21-1.21,1.1-3.18-0.11-4.5C124.4,170.9,123.63,170.68,122.87,170.68z M113.54,179.24c-1.21,1.32-1.21,3.29,0.11,4.5
	c1.32,1.21,3.29,1.21,4.5-0.11c1.2-1.21,1.2-3.29-0.11-4.5C116.72,177.92,114.75,177.92,113.54,179.24z M106.52,186.81
	c-1.21,1.32-1.21,3.29,0.11,4.5c1.31,1.21,3.29,1.21,4.49-0.11c1.1-1.2,1.21-3.29-0.11-4.5C109.7,185.5,107.72,185.5,106.52,186.81z
	"/>
</svg>