<?xml version="1.0" encoding="iso-8859-1"?>
<!-- Uploaded to: SVG Repo, www.svgrepo.com, Generator: SVG Repo Mixer Tools -->
<svg height="100%" width="100%" version="1.1" id="Layer_1" xmlns="http://www.w3.org/2000/svg" xmlns:xlink="http://www.w3.org/1999/xlink" 
	 viewBox="0 0 512.12 512.12" xml:space="preserve">
<g transform="translate(0 1)">
	<g>
		<path style="fill:#FFE100;" d="M145.042,480.47c-2.603,0-4.339-0.868-6.075-2.603L25.286,365.053
			C14.005,353.772,7.93,339.019,7.93,323.399s6.075-30.373,17.356-41.654c22.563-22.563,59.878-22.563,83.308,0l35.58,35.58
			c3.471,3.471,3.471,8.678,0,12.149c-3.471,3.471-8.678,3.471-12.149,0l-35.58-35.58c-16.488-16.488-42.522-16.488-59.01,0
			c-7.81,7.81-12.149,18.224-12.149,29.505c0,11.281,4.339,21.695,12.149,29.505l113.681,113.681c3.471,3.471,3.471,8.678,0,12.149
			C149.381,479.602,146.778,480.47,145.042,480.47z"/>
		<path style="fill:#FFE100;" d="M270.873,168.931c-2.603,0-4.339-0.868-6.075-2.603l-21.695-21.695
			c-11.281-11.281-17.356-26.034-17.356-41.654s6.075-30.373,17.356-41.654c23.43-22.563,60.746-22.563,83.308,0.868l49.464,49.464
			c3.471,3.471,3.471,8.678,0,12.149s-8.678,3.471-12.149,0l-49.464-49.464c-16.488-16.488-42.522-16.488-59.01,0
			c-7.81,7.81-12.149,18.224-12.149,29.505s4.339,21.695,12.149,29.505l21.695,21.695c3.471,3.471,3.471,8.678,0,12.149
			C275.212,168.063,273.476,168.931,270.873,168.931z"/>
		<path style="fill:#FFE100;" d="M270.873,361.582c-13.885,0-28.637-5.207-39.919-16.488l-28.637-28.637
			c-3.471-3.471-3.471-8.678,0-12.149s8.678-3.471,12.149,0l28.637,28.637c16.488,16.488,43.39,13.017,59.01,0
			c15.62-15.62,15.62-41.654,0-58.142l-20.827-21.695c-3.471-3.471-3.471-8.678,0-12.149c3.471-3.471,8.678-3.471,12.149,0
			l20.827,21.695c22.563,22.563,22.563,59.878,0,83.308C302.113,355.508,286.493,361.582,270.873,361.582z"/>
		<path style="fill:#FFE100;" d="M450.507,177.609c-17.356,0-34.712-8.678-51.2-25.166c-3.471-3.471-3.471-8.678,0-12.149
			c3.471-3.471,8.678-3.471,12.149,0c27.77,27.769,53.803,26.034,85.912-4.339c3.471-3.471,8.678-3.471,12.149,0
			c3.471,3.471,3.471,8.678,0,12.149C489.557,168.063,469.598,177.609,450.507,177.609z"/>
		<path style="fill:#FFE100;" d="M436.622,47.44c-12.149-12.149-28.637-16.488-44.258-13.885
			c5.207,1.736,10.414,6.075,18.224,13.885c19.092,19.092,19.092,65.953,0,85.044L17.476,463.982l419.146-331.498
			C456.581,113.392,456.581,66.531,436.622,47.44"/>
		<path style="fill:#FFE100;" d="M394.1,52.647c-19.092-19.092-25.166-19.092-45.125,0L8.798,463.982L394.1,123.806
			C413.191,104.714,413.191,72.606,394.1,52.647"/>
	</g>
	<path style="fill:#FFFFFF;" d="M390.629,38.762c-13.017,9.546-26.034,28.637-37.315,39.919L13.137,463.982L353.313,52.647
		L390.629,38.762z"/>
	<path style="fill:#FFA800;" d="M419.266,52.647c-12.149-11.281-28.637-16.488-44.258-13.885
		c5.207,1.736,10.414,6.075,18.224,13.885c19.092,19.092,19.092,51.2,0,71.159L7.93,463.982l411.336-340.176
		C439.225,104.714,439.225,72.606,419.266,52.647"/>
	<path d="M8.798,472.66c-2.603,0-4.339-0.868-6.075-2.603c-3.471-3.471-3.471-7.81-0.868-11.281L342.032,47.44
		c23.431-23.431,60.746-23.431,83.308-0.868c22.563,22.563,22.563,59.878,0,83.308L14.005,470.924
		C13.137,471.792,10.534,472.66,8.798,472.66z M384.554,46.572c-11.281,0-21.695,4.339-29.505,12.149L73.883,398.897
		l340.176-282.034c6.942-6.942,11.281-17.356,11.281-28.637s-4.339-21.695-12.149-29.505S395.835,46.572,384.554,46.572z"/>
	<path d="M355.917,125.541c-2.603,0-4.339-0.868-6.075-2.603c-3.471-3.471-3.471-8.678,0-12.149l28.637-28.637
		c3.471-3.471,8.678-3.471,12.149,0c3.471,3.471,3.471,8.678,0,12.149l-28.637,28.637
		C360.256,124.674,358.52,125.541,355.917,125.541z"/>
	<path d="M270.873,153.311c-2.603,0-4.339-0.868-6.075-2.603l-21.695-20.827c-11.281-11.281-17.356-26.034-17.356-41.654
		s6.075-30.373,17.356-41.654c22.563-22.563,59.878-22.563,83.308,0l49.464,49.464c3.471,3.471,3.471,8.678,0,12.149
		s-8.678,3.471-12.149,0l-49.464-49.464c-16.488-16.488-42.522-16.488-59.01,0c-7.81,7.81-12.149,18.224-12.149,29.505
		s4.339,21.695,12.149,29.505l21.695,20.827c3.471,3.471,3.471,8.678,0,12.149C275.212,153.311,273.476,153.311,270.873,153.311z"/>
	<path d="M276.079,352.036c-13.885,0-28.637-5.207-39.919-16.488l-27.769-28.637c-3.471-3.471-3.471-8.678,0-12.149
		c3.471-3.471,8.678-3.471,12.149,0l28.637,28.637c16.488,16.488,43.39,13.017,59.01,0c15.62-15.62,15.62-41.654,0-58.142
		l-21.695-21.695c-3.471-3.471-3.471-8.678,0-12.149c3.471-3.471,8.678-3.471,12.149,0l21.695,20.827
		c22.563,22.563,22.563,59.878,0,83.308C308.188,345.094,292.568,352.036,276.079,352.036z"/>
	<path d="M145.042,463.982c-2.603,0-4.339-0.868-6.075-2.603L25.286,348.565C14.005,337.284,7.93,322.531,7.93,306.911
		s6.075-30.373,17.356-41.654c22.563-22.563,59.878-22.563,83.308,0l35.58,35.58c3.471,3.471,3.471,8.678,0,12.149
		s-8.678,3.471-12.149,0l-35.58-35.58c-16.488-16.488-42.522-16.488-59.01,0c-7.81,7.81-12.149,18.224-12.149,29.505
		s4.339,21.695,12.149,29.505l113.681,113.681c3.471,3.471,3.471,8.678,0,12.149C149.381,463.114,146.778,463.982,145.042,463.982z"
		/>
	<path d="M450.507,168.931c-17.356,0-34.712-8.678-51.2-25.166c-3.471-3.471-3.471-8.678,0-12.149c3.471-3.471,8.678-3.471,12.149,0
		c27.77,27.769,53.803,26.034,85.912-4.339c3.471-3.471,8.678-3.471,12.149,0s3.471,8.678,0,12.149
		C489.557,159.386,469.598,168.931,450.507,168.931z"/>
</g>
</svg>