<?xml version="1.0" encoding="iso-8859-1"?>
<!-- Uploaded to: SVG Repo, www.svgrepo.com, Generator: SVG Repo Mixer Tools -->
<svg height="100%" width="100%" version="1.1" id="Layer_1" xmlns="http://www.w3.org/2000/svg" xmlns:xlink="http://www.w3.org/1999/xlink" 
	 viewBox="0 0 512 512" xml:space="preserve">
<g transform="translate(1 1)">
	<g>
		<path style="fill:#FFDD09;" d="M319,254.771l-64,45.714l-64-45.714l64-45.714L319,254.771z"/>
		<path style="fill:#FFDD09;" d="M136.143,254.771l-45.714,36.571l-54.857-36.571L90.429,218.2L136.143,254.771z"/>
	</g>
	<path style="fill:#FFFFFF;" d="M35.571,254.771l52.114-34.743l-15.543-10.971l-64,45.714l64,45.714l15.543-10.971L35.571,254.771z"
		/>
	<path style="fill:#FFDD09;" d="M227.571,190.771l-45.714,36.571L127,190.771l54.857-36.571L227.571,190.771z"/>
	<path style="fill:#FFFFFF;" d="M127,190.771l52.114-34.743l-15.543-10.971l-64,45.714l64,45.714l15.543-10.971L127,190.771z"/>
	<path style="fill:#FFDD09;" d="M191,126.771L236.714,90.2l54.857,36.571l-54.857,36.571L191,126.771z"/>
	<path style="fill:#FD9808;" d="M291.571,126.771l-52.114,34.743L255,172.486l64-45.714l-64-45.714l-15.543,10.971L291.571,126.771z
		"/>
	<path style="fill:#FFDD09;" d="M282.429,190.771l45.714-36.571L383,190.771l-54.857,36.571L282.429,190.771z"/>
	<path style="fill:#FD9808;" d="M383,190.771l-52.114,34.743l15.543,10.971l64-45.714l-64-45.714l-15.543,10.971L383,190.771z"/>
	<path style="fill:#FFDD09;" d="M373.857,254.771l45.714-36.571l54.857,36.571l-54.857,36.571L373.857,254.771z"/>
	<path style="fill:#FD9808;" d="M474.429,254.771l-52.114,34.743l15.543,10.971l64-45.714l-64-45.714l-15.543,10.971
		L474.429,254.771z"/>
	<path style="fill:#FFDD09;" d="M282.429,318.771l45.714-36.571L383,318.771l-54.857,36.571L282.429,318.771z"/>
	<path style="fill:#FD9808;" d="M383,318.771l-52.114,34.743l15.543,10.971l64-45.714l-64-45.714l-15.543,10.971L383,318.771z"/>
	<path style="fill:#FFDD09;" d="M227.571,318.771l-45.714,36.571L127,318.771l54.857-36.571L227.571,318.771z"/>
	<path style="fill:#FFFFFF;" d="M127,318.771l52.114-34.743l-15.543-10.971l-64,45.714l64,45.714l15.543-10.971L127,318.771z"/>
	<path style="fill:#FFDD09;" d="M319,382.771l-45.714,36.571l-54.857-36.571l54.857-36.571L319,382.771z"/>
	<path style="fill:#FFFFFF;" d="M218.429,382.771l52.114-34.743L255,337.057l-64,45.714l64,45.714l15.543-10.971L218.429,382.771z"
		/>
	<path d="M255,181.629c-1.829,0-3.657-0.914-5.486-1.829l-64-45.714c-1.829-1.829-3.657-4.571-3.657-7.314s1.829-5.486,3.657-7.314
		l64-45.714c2.743-1.829,7.314-1.829,10.971,0l64,45.714c2.743,1.829,3.657,4.571,3.657,7.314s-1.829,5.486-3.657,7.314l-64,45.714
		C258.657,180.714,256.829,181.629,255,181.629z M206.543,126.771L255,161.514l48.457-34.743L255,92.029L206.543,126.771z"/>
	<path d="M346.429,245.629c-1.829,0-3.657-0.914-5.486-1.829l-64-45.714c-1.829-1.829-3.657-4.571-3.657-7.314
		s1.829-5.486,3.657-7.314l64-45.714c2.743-1.829,7.314-1.829,10.971,0l64,45.714c2.743,1.829,3.657,4.571,3.657,7.314
		s-1.829,5.486-3.657,7.314l-64,45.714C350.086,244.714,348.257,245.629,346.429,245.629z M297.971,190.771l48.457,34.743
		l48.457-34.743l-48.457-34.743L297.971,190.771z"/>
	<path d="M163.571,245.629c-1.829,0-3.657-0.914-5.486-1.829l-64-45.714c-1.829-1.829-3.657-4.571-3.657-7.314
		s1.829-5.486,3.657-7.314l64-45.714c2.743-1.829,7.314-1.829,10.971,0l64,45.714c2.743,1.829,3.657,4.571,3.657,7.314
		s-1.829,5.486-3.657,7.314l-64,45.714C167.229,244.714,165.4,245.629,163.571,245.629z M115.114,190.771l48.457,34.743
		l48.457-34.743l-48.457-34.743L115.114,190.771z"/>
	<path d="M255,309.629c-1.829,0-3.657-0.914-5.486-1.829l-64-45.714c-1.829-1.829-3.657-4.571-3.657-7.314
		c0-2.743,1.829-5.486,3.657-7.314l64-45.714c2.743-1.829,7.314-1.829,10.971,0l64,45.714c2.743,1.829,3.657,4.571,3.657,7.314
		c0,2.743-1.829,5.486-3.657,7.314l-64,45.714C258.657,308.714,256.829,309.629,255,309.629z M206.543,254.771L255,289.514
		l48.457-34.743L255,220.029L206.543,254.771z"/>
	<path d="M255,437.629c-1.829,0-3.657-0.914-5.486-1.829l-64-45.714c-1.829-1.829-3.657-4.571-3.657-7.314
		c0-2.743,1.829-5.486,3.657-7.314l64-45.714c2.743-1.829,7.314-1.829,10.971,0l64,45.714c2.743,1.829,3.657,4.571,3.657,7.314
		c0,2.743-1.829,5.486-3.657,7.314l-64,45.714C258.657,436.714,256.829,437.629,255,437.629z M206.543,382.771L255,417.514
		l48.457-34.743L255,348.029L206.543,382.771z"/>
	<path d="M437.857,309.629c-1.829,0-3.657-0.914-5.486-1.829l-64-45.714c-1.829-1.829-3.657-4.571-3.657-7.314
		c0-2.743,1.829-5.486,3.657-7.314l64-45.714c2.743-1.829,7.314-1.829,10.971,0l64,45.714c2.743,1.829,3.657,4.571,3.657,7.314
		c0,2.743-1.829,5.486-3.657,7.314l-64,45.714C441.514,308.714,439.686,309.629,437.857,309.629z M389.4,254.771l48.457,34.743
		l48.457-34.743l-48.457-34.743L389.4,254.771z"/>
	<path d="M346.429,373.629c-1.829,0-3.657-0.914-5.486-1.829l-64-45.714c-1.829-1.829-3.657-4.571-3.657-7.314
		c0-2.743,1.829-5.486,3.657-7.314l64-45.714c2.743-1.829,7.314-1.829,10.971,0l64,45.714c2.743,1.829,3.657,4.571,3.657,7.314
		c0,2.743-1.829,5.486-3.657,7.314l-64,45.714C350.086,372.714,348.257,373.629,346.429,373.629z M297.971,318.771l48.457,34.743
		l48.457-34.743l-48.457-34.743L297.971,318.771z"/>
	<path d="M72.143,309.629c-1.829,0-3.657-0.914-5.486-1.829l-64-45.714C0.829,260.257-1,257.514-1,254.771
		c0-2.743,1.829-5.486,3.657-7.314l64-45.714c2.743-1.829,7.314-1.829,10.971,0l64,45.714c2.743,1.829,3.657,4.571,3.657,7.314
		c0,2.743-1.829,5.486-3.657,7.314l-64,45.714C75.8,308.714,73.971,309.629,72.143,309.629z M23.686,254.771l48.457,34.743
		l48.457-34.743l-48.457-34.743L23.686,254.771z"/>
	<path d="M163.571,373.629c-1.829,0-3.657-0.914-5.486-1.829l-64-45.714c-1.829-1.829-3.657-4.571-3.657-7.314
		c0-2.743,1.829-5.486,3.657-7.314l64-45.714c2.743-1.829,7.314-1.829,10.971,0l64,45.714c2.743,1.829,3.657,4.571,3.657,7.314
		c0,2.743-1.829,5.486-3.657,7.314l-64,45.714C167.229,372.714,165.4,373.629,163.571,373.629z M115.114,318.771l48.457,34.743
		l48.457-34.743l-48.457-34.743L115.114,318.771z"/>
</g>
</svg>