<?xml version="1.0" encoding="iso-8859-1"?>
<!-- Uploaded to: SVG Repo, www.svgrepo.com, Generator: SVG Repo Mixer Tools -->
<svg width='100%' height='100%' version="1.1" id="Layer_1" xmlns="http://www.w3.org/2000/svg" xmlns:xlink="http://www.w3.org/1999/xlink" 
	 viewBox="0 0 512 512" xml:space="preserve">
<polygon style="fill:#D14901;" points="411.222,0 255.998,0 216.64,277.246 255.998,512 411.222,512 "/>
<rect x="100.778" style="fill:#F37A23;" width="155.22" height="512"/>
<polygon style="fill:#0089D3;" points="357.325,53.897 255.998,53.897 234.752,159.521 255.998,256.551 357.325,256.551 "/>
<rect x="138.499" y="294.776" style="fill:#D14901;" width="66.194" height="31.347"/>
<rect x="154.674" y="53.897" style="fill:#63C8EE;" width="101.324" height="202.658"/>
<path style="fill:#B34D1D;" d="M271.671,38.224h-15.673l-12.191,117l12.191,116.999h15.673h101.327V170.897V139.55V38.224H271.671z
	 M341.651,240.877h-69.98v-69.98h69.98V240.877z M341.651,139.55h-69.98V69.571h69.98V139.55z"/>
<path style="fill:#D14901;" d="M240.324,38.224H138.998v101.327v31.347v101.327h101.327h15.673V38.224H240.324z M240.324,240.877
	h-69.98v-69.98h69.98V240.877z M240.324,139.55h-69.98V69.571h69.98V139.55z"/>
</svg>